<?xml version="1.0" standalone="no"?>
<!DOCTYPE svg PUBLIC "-//W3C//DTD SVG 1.1//EN" "http://www.w3.org/Graphics/SVG/1.1/DTD/svg11.dtd" >
<svg>
<metadata>
Created by FontForge 20090914 at Wed Jun 13 21:45:01 2012
 By www-data
</metadata>
<defs>
<font id="FontAwesome" horiz-adv-x="1597" >
  <font-face 
    font-family="FontAwesome"
    font-weight="400"
    font-stretch="normal"
    units-per-em="2048"
    panose-1="0 0 0 0 0 0 0 0 0 0"
    ascent="1536"
    descent="-512"
    bbox="-0.0333621 -32.9961 1934.02 1569"
    underline-thickness="102"
    underline-position="-102"
    unicode-range="U+000D-U+F204"
  />
<missing-glyph horiz-adv-x="1024" 
d="M129 0v1536h768v-1536h-768zM256 129h512v1280h-512v-1280z" />
    <glyph glyph-name=".notdef" horiz-adv-x="1024" 
d="M129 0v1536h768v-1536h-768zM256 129h512v1280h-512v-1280z" />
    <glyph glyph-name="uni0000" horiz-adv-x="0" 
 />
    <glyph glyph-name="uni0000" horiz-adv-x="0" 
 />
    <glyph glyph-name="uni000D" unicode="&#xd;" horiz-adv-x="512" 
 />
    <glyph glyph-name="space" unicode=" " horiz-adv-x="512" 
 />
    <glyph glyph-name="o" unicode="o" horiz-adv-x="1591" 
 />
    <glyph glyph-name="uni00A0" unicode="&#xa0;" horiz-adv-x="512" 
 />
    <glyph glyph-name="dieresis" unicode="&#xa8;" horiz-adv-x="2048" 
 />
    <glyph glyph-name="copyright" unicode="&#xa9;" horiz-adv-x="2048" 
 />
    <glyph glyph-name="registered" unicode="&#xae;" horiz-adv-x="2048" 
 />
    <glyph glyph-name="acute" unicode="&#xb4;" horiz-adv-x="2048" 
 />
    <glyph glyph-name="AE" unicode="&#xc6;" horiz-adv-x="2048" 
 />
    <glyph glyph-name="Iacute" unicode="&#xcd;" horiz-adv-x="2048" 
 />
    <glyph glyph-name="uni2000" unicode="&#x2000;" horiz-adv-x="784" 
 />
    <glyph glyph-name="uni2001" unicode="&#x2001;" horiz-adv-x="1569" 
 />
    <glyph glyph-name="uni2002" unicode="&#x2002;" horiz-adv-x="784" 
 />
    <glyph glyph-name="uni2003" unicode="&#x2003;" horiz-adv-x="1569" 
 />
    <glyph glyph-name="uni2004" unicode="&#x2004;" horiz-adv-x="523" 
 />
    <glyph glyph-name="uni2005" unicode="&#x2005;" horiz-adv-x="392" 
 />
    <glyph glyph-name="uni2006" unicode="&#x2006;" horiz-adv-x="261" 
 />
    <glyph glyph-name="uni2007" unicode="&#x2007;" horiz-adv-x="261" 
 />
    <glyph glyph-name="uni2008" unicode="&#x2008;" horiz-adv-x="196" 
 />
    <glyph glyph-name="uni2009" unicode="&#x2009;" horiz-adv-x="313" 
 />
    <glyph glyph-name="uni200A" unicode="&#x200a;" horiz-adv-x="87" 
 />
    <glyph glyph-name="uni202F" unicode="&#x202f;" horiz-adv-x="313" 
 />
    <glyph glyph-name="guilsinglright" unicode="&#x203a;" horiz-adv-x="2048" 
 />
    <glyph glyph-name="uni205F" unicode="&#x205f;" horiz-adv-x="392" 
 />
    <glyph glyph-name="trademark" unicode="&#x2122;" horiz-adv-x="2048" 
 />
    <glyph glyph-name="infinity" unicode="&#x221e;" horiz-adv-x="2048" 
 />
    <glyph glyph-name="uniE000" unicode="&#xe000;" horiz-adv-x="1024" 
d="M0 0z" />
    <glyph glyph-name="uniF002" unicode="&#xf002;" 
d="M0 901c0 91.333 17.335 177.33 52.002 257.997s82.5 151.334 143.5 212.001s131.667 108.5 212 143.5s166.5 52.5 258.5 52.5c91.333 0 177.166 -17.5 257.499 -52.5s151 -82.833 212 -143.5s108.833 -131.334 143.5 -212.001s52 -166.667 52 -258
c0 -65.333 -9.5 -129.166 -28.5 -191.499s-46.167 -120.5 -81.5 -174.5l358 -359c12 -12 18 -27.667 18 -47c0 -10.667 -6 -25 -18 -43s-27 -35.833 -45 -53.5s-35.833 -32.667 -53.5 -45s-31.834 -18.5 -42.501 -18.5c-19.333 0 -35 6.33301 -47 19l-359 358
c-54.667 -35.333 -113 -62.5 -175 -81.5s-125.667 -28.5 -191 -28.5c-91.333 0 -177.333 17.333 -258 52s-151.5 82.334 -212.5 143.001s-108.833 131.334 -143.5 212.001s-52 166.667 -52 258zM266.002 900.997c0 -56 10.667 -108.167 32 -156.5s50 -90.333 86 -126
s78.333 -64 127 -85s100.334 -31.5 155.001 -31.5s106.167 10.5 154.5 31.5s90.5 49.333 126.5 85s64.667 77.667 86 126s32 100.5 32 156.5c0 54.667 -10.667 106.167 -32 154.5s-50 90.666 -86 126.999s-78.167 65 -126.5 86s-99.833 31.5 -154.5 31.5
s-106.334 -10.5 -155.001 -31.5s-91 -49.667 -127 -86s-64.667 -78.666 -86 -126.999s-32 -99.833 -32 -154.5zM414.002 900.997c0 34 6.5 66.334 19.5 97.001s31 57.667 54 81s49.667 41.5 80 54.5s63.166 19.5 98.499 19.5c13.333 0 24.833 -4.83301 34.5 -14.5
s14.5 -21.834 14.5 -36.501c0 -13.333 -4.83301 -24.833 -14.5 -34.5s-21.167 -14.5 -34.5 -14.5c-42 0 -77.833 -14.667 -107.5 -44s-44.5 -65.333 -44.5 -108c0 -13.333 -4.83301 -24.833 -14.5 -34.5s-21.167 -14.5 -34.5 -14.5c-15.333 0 -27.666 4.83301 -36.999 14.5
s-14 21.167 -14 34.5z" />
    <glyph glyph-name="uniF004" unicode="&#xf004;" horiz-adv-x="1802" 
d="M0 1073c0 75.333 11.333 143.665 34 204.998s55.167 113.166 97.5 155.499s93.5 75.166 153.5 98.499s127.333 35 202 35c39.333 0 78.333 -6.16699 117 -18.5s75.334 -28.5 110.001 -48.5s67.667 -42.833 99 -68.5s60.666 -51.5 87.999 -77.5c26 26 55 51.833 87 77.5
s65.5 48.5 100.5 68.5s71.333 36.167 109 48.5s76.167 18.5 115.5 18.5c75.333 0 143.333 -11.667 204 -35s112.167 -56.166 154.5 -98.499s74.666 -94.166 96.999 -155.499s33.5 -129.666 33.5 -204.999c0 -44 -6.16699 -87.333 -18.5 -130s-29.333 -84.167 -51 -124.5
s-46.5 -78.666 -74.5 -114.999s-57 -69.5 -87 -99.5l-615 -612c-15.333 -15.333 -33.666 -23 -54.999 -23c-20.667 0 -39.667 7.66699 -57 23l-615 614c-30 30 -59 63.167 -87 99.5s-52.5 74.333 -73.5 114s-37.667 81 -50 124s-18.5 86.167 -18.5 129.5z" />
    <glyph glyph-name="uniF005" unicode="&#xf005;" horiz-adv-x="1675" 
d="M10 959.5c6 18.333 24.0029 29.5 54.0029 33.5l506 74l227 459c13.333 27.333 29.666 41 48.999 41s36 -13.667 50 -41l227 -459l506 -74c30 -4 48 -15.167 54 -33.5s-1.66699 -38.5 -23 -60.5l-367 -356l86 -504c5.33301 -30 0.166016 -50.833 -15.501 -62.5
s-37.167 -9.83398 -64.5 5.49902l-452 237l-453 -237c-27.333 -15.333 -48.833 -17.166 -64.5 -5.49902s-20.834 32.5 -15.501 62.5l86 504l-364 356c-23.333 22 -32 42.167 -26 60.5z" />
    <glyph glyph-name="uniF006" unicode="&#xf006;" horiz-adv-x="1675" 
d="M0 948c0 15.333 6.16895 25.999 18.502 31.999s24.5 10.333 36.5 13l506 74l227 459c4 9.33301 10.667 18.5 20 27.5s19.333 13.5 30 13.5c12 0 22.167 -4.5 30.5 -13.5s14.5 -18.167 18.5 -27.5l227 -459l506 -74c12 -2.66699 24.167 -7 36.5 -13s18.5 -16.667 18.5 -32
c0 -9.33301 -2.33301 -18.166 -7 -26.499s-10.334 -15.833 -17.001 -22.5l-367 -356l86 -504c0 -2.66699 0.333008 -5.66699 1 -9s1 -7.33301 1 -12c0 -13.333 -3 -24.833 -9 -34.5s-16.667 -14.5 -32 -14.5s-29 4.33301 -41 13l-452 237l-453 -237
c-12 -8 -25 -12.333 -39 -13c-15.333 0 -26.333 4.83301 -33 14.5s-10 21.167 -10 34.5c0 4 0.333008 7.83301 1 11.5s1 6.83398 1 9.50098l86 504l-364 356c-6.66699 6.66699 -12.834 14.167 -18.501 22.5s-8.5 17.166 -8.5 26.499zM289.002 865.999l274 -268l-65 -377
l340 178l340 -178l-66 377l274 268l-378 56l-170 344l-170 -344z" />
    <glyph glyph-name="uniF007" unicode="&#xf007;" horiz-adv-x="1566" 
d="M0 57v387.003c0 24.667 6.16699 52 18.5 82s28.333 58.667 48 86s41.5 52 65.5 74s47.667 36.333 71 43c12 4 34 8.5 66 13.5s66.167 9.83301 102.5 14.5l104.5 13c33.333 4 59 7.33301 77 10c-61.333 39.333 -109.5 90.5 -144.5 153.5s-52.5 131.5 -52.5 205.5
c0 58.667 11.333 113.834 34 165.501s53.167 97 91.5 136s83.333 69.833 135 92.5s106.834 34 165.501 34s114 -11.333 166 -34s97.5 -53.5 136.5 -92.5s69.667 -84.333 92 -136s33.5 -106.834 33.5 -165.501c0 -72.667 -17.333 -140.834 -52 -204.501
s-82.667 -115.167 -144 -154.5c18 -2.66699 43.667 -6 77 -10l104 -13c36 -4.66699 69.667 -9.5 101 -14.5s54 -9.5 68 -13.5c23.333 -6.66699 46.833 -20.667 70.5 -42s45.5 -46 65.5 -74s36.167 -57 48.5 -87s18.5 -57.333 18.5 -82v-387
c-6.66699 -2.66699 -14.167 -7.33398 -22.5 -14.001s-17.333 -13.167 -27 -19.5s-18.834 -11.833 -27.501 -16.5s-16 -7 -22 -7h-1370c-23.333 0 -41 7.16699 -53 21.5s-27 26.166 -45 35.499z" />
    <glyph glyph-name="uniF009" unicode="&#xf009;" horiz-adv-x="1843" 
d="M0 78v536c0 22 7.5 40.5 22.5 55.5s33.5 22.5 55.5 22.5h690c22 0 40.5 -7.5 55.5 -22.5s22.5 -33.5 22.5 -55.5v-536c0 -22 -7.5 -40.5 -22.5 -55.5s-33.5 -22.5 -55.5 -22.5h-690c-22 0 -40.5 7.5 -55.5 22.5s-22.5 33.5 -22.5 55.5zM0 922v538
c0 20.667 7.5 38.5 22.5 53.5s33.5 22.5 55.5 22.5h690c22 0 40.5 -7.5 55.5 -22.5s22.5 -32.833 22.5 -53.5v-538c0 -22 -7.5 -40.167 -22.5 -54.5s-33.5 -21.5 -55.5 -21.5h-690c-22 0 -40.5 7.16699 -55.5 21.5s-22.5 32.5 -22.5 54.5zM999 78v536
c0 22 7.16699 40.5 21.5 55.5s32.5 22.5 54.5 22.5h692c20.667 0 38.5 -7.5 53.5 -22.5s22.5 -33.5 22.5 -55.5v-536c0 -22 -7.5 -40.5 -22.5 -55.5s-32.833 -22.5 -53.5 -22.5h-692c-22 0 -40.167 7.5 -54.5 22.5s-21.5 33.5 -21.5 55.5zM999 922v538
c0 20.667 7.16699 38.5 21.5 53.5s32.5 22.5 54.5 22.5h692c20.667 0 38.5 -7.5 53.5 -22.5s22.5 -32.833 22.5 -53.5v-538c0 -22 -7.5 -40.167 -22.5 -54.5s-32.833 -21.5 -53.5 -21.5h-692c-22 0 -40.167 7.16699 -54.5 21.5s-21.5 32.5 -21.5 54.5z" />
    <glyph glyph-name="uniF00A" unicode="&#xf00a;" horiz-adv-x="1843" 
d="M0 78v270c0 22 7.5 40.167 22.5 54.5s33.5 21.5 55.5 21.5h358c20.667 0 38.5 -7.16699 53.5 -21.5s22.5 -32.5 22.5 -54.5v-270c0 -22 -7.5 -40.5 -22.5 -55.5s-32.833 -22.5 -53.5 -22.5h-358c-22 0 -40.5 7.5 -55.5 22.5s-22.5 33.5 -22.5 55.5zM0 655v225.999
c0 22 7.5 40 22.5 54s33.5 21 55.5 21h358c20.667 0 38.5 -7.16699 53.5 -21.5s22.5 -32.166 22.5 -53.499v-226c0 -22 -7.5 -40.333 -22.5 -55s-32.833 -22 -53.5 -22h-358c-22 0 -40.5 7.5 -55.5 22.5s-22.5 33.167 -22.5 54.5zM0 1188v272c0 20.667 7.5 38.5 22.5 53.5
s33.5 22.5 55.5 22.5h358c20.667 0 38.5 -7.5 53.5 -22.5s22.5 -32.833 22.5 -53.5v-272c0 -22 -7.5 -40.5 -22.5 -55.5s-32.833 -22.5 -53.5 -22.5h-358c-22 0 -40.5 7.5 -55.5 22.5s-22.5 33.5 -22.5 55.5zM666 77.999v270c0 22 7.5 40.167 22.5 54.5
s33.167 21.5 54.5 21.5h359c20.667 0 38.5 -7.16699 53.5 -21.5s22.5 -32.5 22.5 -54.5v-270c0 -22 -7.5 -40.5 -22.5 -55.5s-32.833 -22.5 -53.5 -22.5h-359c-22 0 -40.333 7.5 -55 22.5s-22 33.5 -22 55.5zM666 654.999v225.999c0 22 7.5 40 22.5 54s33.167 21 54.5 21
h359c20.667 0 38.5 -7.16699 53.5 -21.5s22.5 -32.166 22.5 -53.499v-226c0 -22 -7.5 -40.333 -22.5 -55s-32.833 -22 -53.5 -22h-359c-22 0 -40.333 7.5 -55 22.5s-22 33.167 -22 54.5zM666 1188v272c0 20.667 7.5 38.5 22.5 53.5s33.167 22.5 54.5 22.5h359
c20.667 0 38.5 -7.5 53.5 -22.5s22.5 -32.833 22.5 -53.5v-272c0 -22 -7.5 -40.5 -22.5 -55.5s-32.833 -22.5 -53.5 -22.5h-359c-22 0 -40.333 7.5 -55 22.5s-22 33.5 -22 55.5zM1331 77.998v270c0 22 7.5 40.167 22.5 54.5s33.5 21.5 55.5 21.5h358
c20.667 0 38.5 -7.16699 53.5 -21.5s22.5 -32.5 22.5 -54.5v-270c0 -22 -7.5 -40.5 -22.5 -55.5s-32.833 -22.5 -53.5 -22.5h-358c-22 0 -40.5 7.5 -55.5 22.5s-22.5 33.5 -22.5 55.5zM1331 654.998v225.999c0 22 7.5 40 22.5 54s33.5 21 55.5 21h358
c20.667 0 38.5 -7.16699 53.5 -21.5s22.5 -32.166 22.5 -53.499v-226c0 -22 -7.5 -40.333 -22.5 -55s-32.833 -22 -53.5 -22h-358c-22 0 -40.5 7.5 -55.5 22.5s-22.5 33.167 -22.5 54.5zM1331 1188v272c0 20.667 7.5 38.5 22.5 53.5s33.5 22.5 55.5 22.5h358
c20.667 0 38.5 -7.5 53.5 -22.5s22.5 -32.833 22.5 -53.5v-272c0 -22 -7.5 -40.5 -22.5 -55.5s-32.833 -22.5 -53.5 -22.5h-358c-22 0 -40.5 7.5 -55.5 22.5s-22.5 33.5 -22.5 55.5z" />
    <glyph glyph-name="uniF00B" unicode="&#xf00b;" horiz-adv-x="1843" 
d="M0 78v270c0 22 7.5 40.167 22.5 54.5s33.5 21.5 55.5 21.5h297c20.667 0 38.5 -7.16699 53.5 -21.5s22.5 -32.5 22.5 -54.5v-270c0 -22 -7.5 -40.5 -22.5 -55.5s-32.833 -22.5 -53.5 -22.5h-297c-22 0 -40.5 7.5 -55.5 22.5s-22.5 33.5 -22.5 55.5zM0 655v225.999
c0 22 7.5 40 22.5 54s33.5 21 55.5 21h297c20.667 0 38.5 -7.16699 53.5 -21.5s22.5 -32.166 22.5 -53.499v-226c0 -22 -7.5 -40.333 -22.5 -55s-32.833 -22 -53.5 -22h-297c-22 0 -40.5 7.5 -55.5 22.5s-22.5 33.167 -22.5 54.5zM0 1188v272c0 20.667 7.5 38.5 22.5 53.5
s33.5 22.5 55.5 22.5h297c20.667 0 38.5 -7.5 53.5 -22.5s22.5 -32.833 22.5 -53.5v-272c0 -22 -7.5 -40.5 -22.5 -55.5s-32.833 -22.5 -53.5 -22.5h-297c-22 0 -40.5 7.5 -55.5 22.5s-22.5 33.5 -22.5 55.5zM604 77.999v270c0 22 7.5 40.167 22.5 54.5s33.5 21.5 55.5 21.5
h1085c20.667 0 38.5 -7.16699 53.5 -21.5s22.5 -32.5 22.5 -54.5v-270c0 -22 -7.5 -40.5 -22.5 -55.5s-32.833 -22.5 -53.5 -22.5h-1085c-22 0 -40.5 7.5 -55.5 22.5s-22.5 33.5 -22.5 55.5zM604 654.999v225.999c0 22 7.5 40 22.5 54s33.5 21 55.5 21h1085
c20.667 0 38.5 -7.16699 53.5 -21.5s22.5 -32.166 22.5 -53.499v-226c0 -22 -7.5 -40.333 -22.5 -55s-32.833 -22 -53.5 -22h-1085c-22 0 -40.5 7.5 -55.5 22.5s-22.5 33.167 -22.5 54.5zM604 1188v272c0 20.667 7.5 38.5 22.5 53.5s33.5 22.5 55.5 22.5h1085
c20.667 0 38.5 -7.5 53.5 -22.5s22.5 -32.833 22.5 -53.5v-272c0 -22 -7.5 -40.5 -22.5 -55.5s-32.833 -22.5 -53.5 -22.5h-1085c-22 0 -40.5 7.5 -55.5 22.5s-22.5 33.5 -22.5 55.5z" />
    <glyph glyph-name="uniF00C" unicode="&#xf00c;" horiz-adv-x="1843" 
d="M0 732.5c0 22.333 7.6709 40.833 23.0039 55.5l174 175c15.333 15.333 34.166 22.833 56.499 22.5s40.833 -7.83301 55.5 -22.5l365 -365c15.333 -15.333 34.166 -23 56.499 -23s40.833 7.66699 55.5 23l746 745c15.333 15.333 34.166 23 56.499 23
s41.166 -7.66699 56.499 -23l174 -174c15.333 -15.333 22.833 -34.166 22.5 -56.499s-7.83301 -40.833 -22.5 -55.5l-910 -910c-15.333 -15.333 -36.166 -28.333 -62.499 -39s-50.5 -16 -72.5 -16h-88c-23.333 0 -48.333 5.5 -75 16.5s-47.334 23.833 -62.001 38.5l-526 529
c-15.333 15.333 -23 34.166 -23 56.499z" />
    <glyph glyph-name="uniF00D" unicode="&#xf00d;" horiz-adv-x="1536" 
d="M0 192.5c0 25.667 9.66699 48.167 29 67.5l508 510l-508 500c-19.333 19.333 -29 41.833 -29 67.5s9.66699 48.167 29 67.5l100 100c19.333 19.333 42 29 68 29s48.333 -9.66699 67 -29l504 -504l504 504c19.333 19.333 41.833 29 67.5 29s48.167 -9.66699 67.5 -29
l100 -100c19.333 -19.333 29 -42 29 -68s-9.66699 -48.333 -29 -67l-508 -510l508 -500c19.333 -19.333 29 -41.5 29 -66.5s-9.66699 -47.167 -29 -66.5l-100 -102c-19.333 -19.333 -42 -29 -68 -29s-48.333 9.66699 -67 29l-504 505l-506 -505
c-19.333 -19.333 -41.5 -29 -66.5 -29s-47.167 9.66699 -66.5 29l-100 100c-19.333 19.333 -29 41.833 -29 67.5z" />
    <glyph glyph-name="uniF00E" unicode="&#xf00e;" 
d="M0 901c0 91.333 17.334 177.33 52.001 257.997s82.5 151.334 143.5 212.001s131.667 108.5 212 143.5s166.5 52.5 258.5 52.5c91.333 0 177.666 -17.5 258.999 -52.5s152 -82.833 212 -143.5s107.333 -131.334 142 -212.001s52 -166.667 52 -258
c0 -68 -9.5 -133.167 -28.5 -195.5s-46.167 -119.166 -81.5 -170.499l358 -359c12 -12 18 -27.333 18 -46s-6 -34.667 -18 -48l-94 -94c-13.333 -12 -29.333 -18.167 -48 -18.5s-34 5.83398 -46 18.501l-359 358c-52 -35.333 -109 -62.5 -171 -81.5s-127 -28.5 -195 -28.5
c-91.333 0 -177.333 17.333 -258 52s-151.5 82 -212.5 142s-108.833 130.333 -143.5 211s-52 167.334 -52 260.001zM266.001 900.997c0 -56 10.667 -108.167 32 -156.5s50 -90.333 86 -126s78.333 -64 127 -85s100.334 -31.5 155.001 -31.5s106.5 10.5 155.5 31.5
s91.167 49.333 126.5 85s63.666 77.667 84.999 126s32 100.5 32 156.5c0 54.667 -10.667 106.167 -32 154.5s-49.666 90.666 -84.999 126.999s-77.5 65 -126.5 86s-100.833 31.5 -155.5 31.5s-106.334 -10.5 -155.001 -31.5s-91 -49.667 -127 -86
s-64.667 -78.666 -86 -126.999s-32 -99.833 -32 -154.5zM399.001 867.997l-0.00195312 65.999c0 22 11 33 33 33h168v168c0 22 11 32.667 33 32h65c9.33301 0 17.5 -3 24.5 -9s10.5 -13.667 10.5 -23v-168h166c22 0 33 -11 33 -33v-66c0 -9.33301 -3.16699 -17.333 -9.5 -24
s-14.166 -10 -23.499 -10h-166v-166c0 -9.33301 -3.33301 -17.166 -10 -23.499s-15 -9.5 -25 -9.5h-65c-22 0 -33 11 -33 33v166h-168c-9.33301 0 -17.166 3.33301 -23.499 10s-9.5 14.667 -9.5 24z" />
    <glyph glyph-name="uniF010" unicode="&#xf010;" 
d="M0 901c0 91.333 17.334 177.33 52.001 257.997s82.5 151.334 143.5 212.001s131.667 108.5 212 143.5s166.5 52.5 258.5 52.5c91.333 0 177.666 -17.5 258.999 -52.5s152 -82.833 212 -143.5s107.333 -131.334 142 -212.001s52 -166.667 52 -258
c0 -68 -9.5 -133.167 -28.5 -195.5s-46.167 -119.166 -81.5 -170.499l358 -359c12 -12 18 -27.333 18 -46s-6 -34.667 -18 -48l-94 -94c-13.333 -12 -29.333 -18.167 -48 -18.5s-34 5.83398 -46 18.501l-359 358c-52 -35.333 -109 -62.5 -171 -81.5s-127 -28.5 -195 -28.5
c-91.333 0 -177.333 17.333 -258 52s-151.5 82 -212.5 142s-108.833 130.333 -143.5 211s-52 167.334 -52 260.001zM266.001 900.997c0 -56 10.667 -108.167 32 -156.5s50 -90.333 86 -126s78.333 -64 127 -85s100.334 -31.5 155.001 -31.5s106.5 10.5 155.5 31.5
s91.167 49.333 126.5 85s63.666 77.667 84.999 126s32 100.5 32 156.5c0 54.667 -10.667 106.167 -32 154.5s-49.666 90.666 -84.999 126.999s-77.5 65 -126.5 86s-100.833 31.5 -155.5 31.5s-106.334 -10.5 -155.001 -31.5s-91 -49.667 -127 -86
s-64.667 -78.666 -86 -126.999s-32 -99.833 -32 -154.5zM399.001 867.997l-0.00195312 66c0 22 11 33 33 33h467c22 0 33 -11 33 -33v-66c0 -9.33301 -3.16699 -17.333 -9.5 -24s-14.166 -10 -23.499 -10h-467c-9.33301 0 -17.166 3.33301 -23.499 10s-9.5 14.667 -9.5 24z
" />
    <glyph glyph-name="uniF013" unicode="&#xf013;" horiz-adv-x="1593" 
d="M0 651v236.001c0 8 10.167 15.167 30.5 21.5s43.166 11.5 68.499 15.5s50 7 74 9s40 3.66699 48 5c12 40.667 28.333 79.667 49 117c-36.667 54.667 -76.667 107 -120 157l-7 15c0 5.33301 9.33301 18.166 28 38.499l62.5 65.5c23 23.333 45.167 44.166 66.5 62.499
s34.666 27.5 39.999 27.5c1.33301 0 10.166 -6.16699 26.499 -18.5l54.5 -41l56.5 -43c17.667 -13.667 28.5 -21.834 32.5 -24.501c19.333 10.667 38.833 19.5 58.5 26.5s39.834 13.833 60.501 20.5c0 8 1 24.333 3 49s5 49.667 9 75s9.16699 48.333 15.5 69
s13.5 31 21.5 31h237c9.33301 0 15.666 -5 18.999 -15c8 -32.667 13.667 -67 17 -103s8 -71.333 14 -106c20.667 -5.33301 40.5 -11.666 59.5 -18.999s37.833 -16.666 56.5 -27.999l34 26.5l55.5 43l53 40c15.667 11.667 25.5 17.5 29.5 17.5s16.333 -9.16699 37 -27.5
s42.334 -39.166 65.001 -62.499l61.5 -65.5c18.333 -20.333 27.5 -33.166 27.5 -38.499c0 -2.66699 -5.83301 -12.167 -17.5 -28.5l-39 -53.5l-42 -55.5c-13.667 -17.667 -21.834 -28.5 -24.501 -32.5c22 -36.667 39 -77.667 51 -123c32.667 -6.66699 67.167 -11 103.5 -13
s70.166 -8.66699 101.499 -20c10.667 -2.66699 16 -8.66699 16 -18v-236c0 -8 -9.83301 -15.167 -29.5 -21.5s-42.5 -11.5 -68.5 -15.5s-51.333 -7 -76 -9s-41 -3.66699 -49 -5c-9.33301 -38 -25 -77 -47 -117c36.667 -54.667 77 -107 121 -157l6 -15
c0 -5.33301 -9.16699 -18.166 -27.5 -38.499s-39.166 -42.166 -62.499 -65.499s-45.5 -44.166 -66.5 -62.499s-34.5 -27.5 -40.5 -27.5c-1.33301 0 -10.166 6.16699 -26.499 18.5l-54 41l-56 43c-17.667 13.667 -28.834 21.834 -33.501 24.501
c-19.333 -10.667 -38.833 -19.834 -58.5 -27.501s-39.5 -14.167 -59.5 -19.5c-1.33301 -8 -3.16602 -24.5 -5.49902 -49.5s-5.5 -50.333 -9.5 -76s-8.66699 -48.834 -14 -69.501s-12.333 -31 -21 -31h-237c-9.33301 0 -15.666 5.66699 -18.999 17
c-9.33301 32.667 -15.666 67 -18.999 103s-7 70.333 -11 103c-40.667 12 -79.667 28.667 -117 50l-81 -60.5c-26.667 -19.667 -53 -40.5 -79 -62.5l-12 -4c-4 0 -16.333 9.16699 -37 27.5s-42.167 39.166 -64.5 62.499l-61 65.5c-18.333 20.333 -27.5 33.166 -27.5 38.499
c0 1.33301 5.33301 10.166 16 26.499s23.167 34.166 37.5 53.499l42 55.5l26.5 34.5c-22 36.667 -39 77.667 -51 123c-34 6.66699 -68.833 11 -104.5 13s-69.167 8.66699 -100.5 20c-10.667 2.66699 -16 8.66699 -16 18zM557 768.001c0 -32.667 6.16699 -63.667 18.5 -93
s29.333 -55 51 -77s47.334 -39.5 77.001 -52.5s60.834 -19.5 93.501 -19.5s63.667 6.5 93 19.5s54.5 30.5 75.5 52.5s38 47.667 51 77s19.5 60.333 19.5 93s-6.5 63.334 -19.5 92.001s-30 54 -51 76s-46.167 39.167 -75.5 51.5s-60.333 18.5 -93 18.5
s-63.834 -6.16699 -93.501 -18.5s-55.334 -29.5 -77.001 -51.5s-38.667 -47.333 -51 -76s-18.5 -59.334 -18.5 -92.001z" />
    <glyph glyph-name="uniF014" unicode="&#xf014;" horiz-adv-x="1304" 
d="M0 1175.5l-0.00390625 34.498v36c0 12 0.666992 24 2 36c16.667 9.33301 40.334 17.166 71.001 23.499s63.334 11.5 98.001 15.5s68.834 7 102.501 9s59.834 3.66699 78.501 5c-5.33301 54.667 -1.5 97.334 11.5 128.001s32.833 53.5 59.5 68.5s59.5 24.667 98.5 29
s82.833 6.5 131.5 6.5c36.667 0 73.167 -1 109.5 -3s68.833 -8.83301 97.5 -20.5s51.5 -29.834 68.5 -54.501s25.5 -59.667 25.5 -105v-24c0 -8 -0.666992 -16.333 -2 -25c19.333 -1.33301 45.666 -3 78.999 -5s67.5 -5 102.5 -9s68.167 -9.16699 99.5 -15.5
s55.333 -14.166 72 -23.499v-72v-69c-24.667 -13.333 -65.667 -24.166 -123 -32.499s-119.166 -14.666 -185.499 -18.999s-130.833 -6.83301 -193.5 -7.5s-112.667 -1 -150 -1c-36.667 0 -86.667 0.333008 -150 1s-128.166 3.16699 -194.499 7.5s-127.833 10.5 -184.5 18.5
s-97.334 19 -122.001 33c-1.33301 10.667 -2 22.167 -2 34.5zM132.996 153.998v836.999c82 -10.667 163.333 -17.667 244 -21s162 -5 244 -5h32c86 1.33301 172 3.33301 258 6s172 9.33398 258 20.001v-837c0 -42 -14.667 -78.167 -44 -108.5s-65 -45.5 -107 -45.5h-731
c-42 0 -78.167 15 -108.5 45s-45.5 66.333 -45.5 109zM302.996 198.997c0 -10.667 3.5 -19.5 10.5 -26.5s15.833 -10.5 26.5 -10.5h39c10.667 0 19.834 3.33301 27.501 10s11.5 15.667 11.5 27v614c0 10.667 -3.83301 19.834 -11.5 27.501s-16.834 11.5 -27.501 11.5h-39
c-10.667 0 -19.5 -3.83301 -26.5 -11.5s-10.5 -16.834 -10.5 -27.501v-614zM503.996 1384c0 -6.66699 0.333984 -14.001 1.00098 -22.001s1.66699 -15.667 3 -23c96 1.33301 193 1.33301 291 0c0 8 0.666992 15.833 2 23.5s1.33301 14.834 0 21.501v15
c-23.333 6.66699 -48 10.334 -74 11.001s-50.667 1 -74 1c-24.667 0 -49.834 -0.333008 -75.501 -1s-50.167 -4.33398 -73.5 -11.001v-15zM595.997 198.996c0 -10.667 3.33301 -19.5 10 -26.5s15.667 -10.5 27 -10.5h39c10.667 0 19.834 3.33301 27.501 10
s11.5 15.667 11.5 27v614c0 10.667 -3.83301 19.834 -11.5 27.501s-16.834 11.5 -27.501 11.5h-39c-10.667 0 -19.5 -3.83301 -26.5 -11.5s-10.5 -16.834 -10.5 -27.501v-614zM886.997 198.996c0 -10.667 3.66895 -19.5 11.002 -26.5s16.666 -10.5 27.999 -10.5h39
c10.667 0 19.834 3.33301 27.501 10s11.5 15.667 11.5 27v614c0 10.667 -3.83301 19.834 -11.5 27.501s-16.834 11.5 -27.501 11.5h-39c-10.667 0 -19.834 -3.83301 -27.501 -11.5s-11.5 -16.834 -11.5 -27.501v-614z" />
    <glyph glyph-name="uniF017" unicode="&#xf017;" 
d="M0 768c0 110.667 20.833 214.5 62.5 311.5s98.667 181.667 171 254s157 129.333 254 171s200.833 62.5 311.5 62.5s214.334 -20.833 311.001 -62.5s181.334 -98.667 254.001 -171s129.667 -157 171 -254s62 -200.833 62 -311.5s-20.667 -214.5 -62 -311.5
s-98.333 -181.667 -171 -254s-157.334 -129.333 -254.001 -171s-200.334 -62.5 -311.001 -62.5s-214.5 20.833 -311.5 62.5s-181.667 98.667 -254 171s-129.333 157 -171 254s-62.5 200.833 -62.5 311.5zM240 768c0 -78 14.668 -150.667 44.001 -218
s69.166 -126.333 119.499 -177s109.333 -90.667 177 -120s140.5 -44 218.5 -44s150.667 14.667 218 44s126.333 69.333 177 120s90.667 109.667 120 177s44 140 44 218s-14.667 150.667 -44 218s-69.333 126.333 -120 177s-109.834 90.667 -177.501 120
s-140.167 44 -217.5 44c-78 0 -150.833 -14.667 -218.5 -44s-126.667 -69.333 -177 -120s-90.166 -109.667 -119.499 -177s-44 -140 -44 -218zM635.001 608v465c0 22 7.83301 40.833 23.5 56.5s34.5 23.5 56.5 23.5h80c23.333 0 42.333 -7.83301 57 -23.5s22 -34.5 22 -56.5
v-305h201c22 0 40.833 -7.83301 56.5 -23.5s23.5 -34.5 23.5 -56.5v-80c0 -22 -7.83301 -40.833 -23.5 -56.5s-34.5 -23.5 -56.5 -23.5h-360c-22 0 -40.833 7.83301 -56.5 23.5s-23.5 34.5 -23.5 56.5z" />
    <glyph glyph-name="uniF01E" unicode="&#xf01e;" horiz-adv-x="1591" 
d="M0 768c0 110.667 20.8311 214.498 62.498 311.498s98.667 181.667 171 254s157 129.333 254 171s200.833 62.5 311.5 62.5c94 0 184.333 -16.167 271 -48.5s166.334 -79.166 239.001 -140.499l161 162c23.333 23.333 42.833 31.5 58.5 24.5s23.5 -26.167 23.5 -57.5v-463
c0 -22 -7.33301 -40.333 -22 -55c-6.66699 -6.66699 -14.5 -12 -23.5 -16s-18.833 -6 -29.5 -6h-463c-31.333 0 -50.833 7.83301 -58.5 23.5s0.166016 35.167 23.499 58.5l160 159c-48 38 -101 67.333 -159 88s-118.333 31 -181 31c-78 0 -150.833 -14.667 -218.5 -44
s-126.667 -69.333 -177 -120s-90.166 -109.667 -119.499 -177s-44 -140 -44 -218s14.667 -150.667 44 -218s69.166 -126.333 119.499 -177s109.333 -90.667 177 -120s140.5 -44 218.5 -44c69.333 0 135.5 12.333 198.5 37s119.333 58.5 169 101.5
s90.834 94.167 123.501 153.5s54 123 64 191c0 10.667 4.66699 19.667 14 27c9.33301 6.66699 19.666 9.33398 30.999 8.00098l157 -20c10.667 -2.66699 19.5 -8.16699 26.5 -16.5s9.83301 -17.833 8.5 -28.5c-13.333 -98 -43.166 -189.5 -89.499 -274.5
s-105 -158.5 -176 -220.5s-151.667 -110.5 -242 -145.5s-185.166 -52.5 -284.499 -52.5c-110.667 0 -214.5 20.833 -311.5 62.5s-181.667 98.667 -254 171s-129.333 157 -171 254s-62.5 200.833 -62.5 311.5z" />
    <glyph glyph-name="uniF021" unicode="&#xf021;" horiz-adv-x="1916" 
d="M22 311l149.999 436.999c6.66699 22 19.667 37 39 45s39 9.33301 59 4l438 -150c30 -10.667 45.333 -24.167 46 -40.5s-13.333 -32.166 -42 -47.499l-202 -100c35.333 -52 76.5 -96.833 123.5 -134.5s100.5 -66.5 160.5 -86.5c74 -24.667 147.833 -34 221.5 -28
s142.667 24.667 207 56s121 74.333 170 129s85.833 119 110.5 193c4 10.667 10.833 18 20.5 22s19.834 4.66699 30.501 2l152 -51c10.667 -4 18.334 -10.833 23.001 -20.5s5 -19.834 1 -30.501c-35.333 -105.333 -88.5 -196.833 -159.5 -274.5s-152.167 -139 -243.5 -184
s-190 -72 -296 -81s-211 4.16699 -315 39.5c-90 31.333 -170.5 76 -241.5 134s-130.833 127.333 -179.5 208l-205 -100c-28.667 -15.333 -49.834 -17.166 -63.501 -5.49902s-15.167 33.167 -4.5 64.5zM218.999 1024c35.333 104 88.5029 195.168 159.503 273.501
s152.167 140 243.5 185s189.666 72 294.999 81s210.666 -4.16699 315.999 -39.5c88.667 -31.333 168.834 -76 240.501 -134s131.834 -127.333 180.501 -208l205 100c28.667 15.333 49.834 17.166 63.501 5.49902s15.167 -32.5 4.5 -62.5l-150 -439
c-6.66699 -22 -19.667 -37 -39 -45s-39 -9.33301 -59 -4l-438 150c-30 10.667 -45.333 24.167 -46 40.5s12.666 32.166 39.999 47.499l202 100c-34 52 -74.833 96.833 -122.5 134.5s-100.834 66.5 -159.501 86.5c-74 24.667 -147.833 34 -221.5 28
s-142.667 -24.667 -207 -56s-121 -74.333 -170 -129s-85.833 -119 -110.5 -193c-4 -10.667 -10.833 -18 -20.5 -22s-19.834 -4.66699 -30.501 -2l-152 51c-10.667 4 -18.334 10.833 -23.001 20.5s-5 19.834 -1 30.501z" />
    <glyph glyph-name="uniF023" unicode="&#xf023;" horiz-adv-x="1253" 
d="M0 117l-0.000976562 626c0 26 7.16699 49 21.5 69s33.166 34 56.499 42v164c0 75.333 14.333 146.333 43 213s67.834 125 117.501 175s108 89.333 175 118s138.167 43 213.5 43s146.333 -14.333 213 -43s125 -68 175 -118s89.333 -108.5 118 -175.5
s43 -137.833 43 -212.5v-164c23.333 -8 42 -22 56 -42s21 -43 21 -69v-626c0 -31.333 -11.5 -58.666 -34.5 -81.999s-50.167 -35 -81.5 -35h-1020c-31.333 0 -58.666 11.667 -81.999 35s-35 50.666 -35 81.999zM312.999 862l627 -0.000976562v156
c0 44 -8.16699 85 -24.5 123s-38.833 71 -67.5 99s-62.167 50.167 -100.5 66.5s-78.5 24.5 -120.5 24.5c-44 0 -84.667 -8.16699 -122 -24.5s-70.5 -38.5 -99.5 -66.5s-51.667 -61.167 -68 -99.5s-24.5 -79.166 -24.5 -122.499v-156zM493.999 163.999h266.001l-66 285
c19.333 12 35.166 28.167 47.499 48.5s18.5 42.166 18.5 65.499c0 36.667 -13 68.334 -39 95.001s-57.333 40 -94 40s-68 -13.333 -94 -40s-39 -58.334 -39 -95.001c0 -23.333 6 -45.166 18 -65.499s27.667 -35.833 47 -46.5z" />
    <glyph glyph-name="uniF02F" unicode="&#xf02f;" horiz-adv-x="1843" 
d="M0 39l0.000976562 346c0 31.333 6.16699 61 18.5 89s29 52.333 50 73s45.5 37 73.5 49s57.667 18 89 18h1383c31.333 0 61 -6 89 -18s52.167 -28.333 72.5 -49s36.666 -45 48.999 -73s18.5 -57.667 18.5 -89v-346c0 -26 -13 -39 -39 -39h-1765c-26 0 -39 13 -39 39z
M268.001 193c0 -10.667 3.83301 -19.502 11.5 -26.502s16.834 -10.5 27.501 -10.5h1229c10.667 0 19.834 3.33301 27.501 10s11.5 15.667 11.5 27v38c0 10.667 -3.83301 19.834 -11.5 27.501s-16.834 11.5 -27.501 11.5h-1229c-10.667 0 -19.834 -3.66699 -27.501 -11
s-11.5 -16.666 -11.5 -27.999v-38zM307.001 728.998v731.001c0 20.667 7.5 38.5 22.5 53.5s33.5 22.5 55.5 22.5h651v-383c0 -32.667 11.333 -60.334 34 -83.001s49.667 -34 81 -34h385v-307h-1229zM1151 1153v383l385 -383h-385z" />
    <glyph glyph-name="uniF030" unicode="&#xf030;" horiz-adv-x="1843" 
d="M0 115v1075c-0 31.333 11.333 58.666 34 81.999s49.667 35 81 35h366l58 125c12 28.667 34 53.167 66 73.5s63.667 30.5 95 30.5h443c31.333 0 63 -10.167 95 -30.5s54.333 -44.833 67 -73.5l57 -125h367c31.333 0 58.166 -11.667 80.499 -35s33.5 -50.666 33.5 -81.999
v-1075c0 -31.333 -11.167 -58.333 -33.5 -81s-49.166 -34 -80.499 -34h-1614c-31.333 -0 -58.333 11.333 -81 34s-34 49.667 -34 81zM442 653c0 -66.667 12.667 -129 38 -187s59.5 -108.833 102.5 -152.5s94 -78.167 153 -103.5s121.167 -38 186.5 -38
s127.333 12.667 186 38s109.5 59.833 152.5 103.5s77.167 94.5 102.5 152.5s38 120.333 38 187c0 65.333 -12.667 127.5 -38 186.5s-59.5 110 -102.5 153s-93.833 77.167 -152.5 102.5s-120.667 38 -186 38s-127.5 -12.667 -186.5 -38s-110 -59.5 -153 -102.5
s-77.167 -93.833 -102.5 -152.5s-38 -121 -38 -187zM596 653c0 45.333 8.50293 87.8311 25.5029 127.498s40.167 74.167 69.5 103.5s63.833 52.5 103.5 69.5s82.167 25.5 127.5 25.5s87.666 -8.5 126.999 -25.5s73.666 -40.167 102.999 -69.5s52.5 -63.833 69.5 -103.5
s25.5 -82.167 25.5 -127.5s-8.5 -87.666 -25.5 -126.999s-40.167 -74 -69.5 -104s-63.833 -53.5 -103.5 -70.5s-81.834 -25.5 -126.501 -25.5c-45.333 0 -87.833 8.5 -127.5 25.5s-74.167 40.5 -103.5 70.5s-52.5 64.833 -69.5 104.5s-25.5 81.834 -25.5 126.501z" />
    <glyph glyph-name="uniF040" unicode="&#xf040;" horiz-adv-x="1536" 
d="M0 0l137 418l867 866l280 -280l-866 -867zM287 407.5c0 -8.33301 3.33301 -15.832 10 -22.499c5.33301 -5.33301 12.666 -8 21.999 -8c8 0 15 2.66699 21 8l690 690c13.333 13.333 13.333 27.666 0 42.999c-6.66699 6.66699 -14.167 10 -22.5 10
s-15.166 -3.33301 -20.499 -10l-690 -688c-6.66699 -6.66699 -10 -14.167 -10 -22.5zM1102 1382l119 119c23.333 23.333 51.333 35 84 35s60.667 -11.667 84 -35l57 -55l55 -57c23.333 -23.333 35 -51.5 35 -84.5s-11.667 -60.833 -35 -83.5l-119 -119z" />
    <glyph glyph-name="uniF041" unicode="&#xf041;" horiz-adv-x="1128" 
d="M0 1001c0 78 14.666 151.499 43.999 220.499s69.666 129.167 120.999 180.5s111.5 91.666 180.5 120.999s142.167 44 219.5 44c78 0 151.167 -14.667 219.5 -44s128 -69.666 179 -120.999s91.167 -111.5 120.5 -180.5s44 -142.5 44 -220.5
c0 -56 -8.16699 -109.167 -24.5 -159.5s-38.166 -98.166 -65.499 -143.499l-379 -661c-27.333 -45.333 -59 -68 -95 -68s-67 22.667 -93 68l-381 663c-27.333 45.333 -49.166 93 -65.499 143s-24.5 102.667 -24.5 158zM284.999 1001c0 -38 7.16797 -74 21.501 -108
s34.5 -63.667 60.5 -89s55.667 -45.166 89 -59.499s69.666 -21.5 108.999 -21.5c38 0 74.167 7.16699 108.5 21.5s64.166 34.166 89.499 59.499s45.166 55 59.499 89s21.5 70 21.5 108s-7.16699 74.167 -21.5 108.5s-34.166 64.5 -59.499 90.5s-55 46.167 -89 60.5
s-70.333 21.5 -109 21.5c-39.333 0 -75.666 -7.16699 -108.999 -21.5s-63 -34.5 -89 -60.5s-46.167 -56 -60.5 -90s-21.5 -70.333 -21.5 -109z" />
    <glyph glyph-name="uniF047" unicode="&#xf047;" 
d="M0 768c0 16.667 6.00098 31 18.001 43l256 256c18 18 33.167 24.5 45.5 19.5s18.5 -20.5 18.5 -46.5v-170h360v359h-172c-24.667 0 -39.667 6.16699 -45 18.5s1 27.166 19 44.499l256 256c12 12 26.333 18.333 43 19c16.667 0 31 -6.33301 43 -19l256 -256
c18 -18 24.5 -33 19.5 -45s-20.5 -18 -46.5 -18h-172v-359h361v170c0 26 6 41.5 18 46.5s27 -1.5 45 -19.5l256 -256c12 -12 18 -26.333 18 -43s-6 -31 -18 -43l-256 -256c-18 -18 -33 -24.5 -45 -19.5s-18 20.5 -18 46.5v176h-361v-365h172c26 0 41.667 -6.16699 47 -18.5
s-1.33398 -27.166 -20.001 -44.499l-256 -256c-12 -12 -26.333 -18.333 -43 -19c-16.667 0 -31 6.33301 -43 19l-256 256c-18 18 -24.667 33 -20 45s20 18 46 18h172v365h-360v-176c0 -26 -6.16699 -41.5 -18.5 -46.5s-27.5 1.5 -45.5 19.5l-256 256
c-12 12 -18 26.333 -18 43z" />
    <glyph glyph-name="uniF053" unicode="&#xf053;" horiz-adv-x="964" 
d="M0 765c0 25.333 9.66699 47.334 29 66.001l671 674c19.333 19.333 42 29 68 29s48.667 -9.66699 68 -29l100 -100c19.333 -19.333 29 -42 29 -68s-9.66699 -48.333 -29 -67l-508 -510l508 -500c19.333 -19.333 29 -41.5 29 -66.5s-9.66699 -47.167 -29 -66.5l-100 -102
c-19.333 -19.333 -42 -29 -68 -29s-48.667 9.66699 -68 29l-671 673c-19.333 19.333 -29 41.666 -29 66.999z" />
    <glyph glyph-name="uniF054" unicode="&#xf054;" horiz-adv-x="964" 
d="M0 194.5c0 25.667 9.66699 48.167 29 67.5l508 508l-508 502c-19.333 19.333 -29 41.5 -29 66.5s9.66699 47.167 29 66.5l100 102c19.333 19.333 42 29 68 29s48.333 -9.66699 67 -29l672 -673c19.333 -19.333 29 -42 29 -68s-9.66699 -48.667 -29 -68l-672 -671
c-19.333 -19.333 -41.833 -29 -67.5 -29s-48.167 9.66699 -67.5 29l-100 100c-19.333 19.333 -29 41.833 -29 67.5z" />
    <glyph glyph-name="uniF055" unicode="&#xf055;" 
d="M0 768c0 110.667 20.833 214.5 62.5 311.5s98.667 181.667 171 254s157 129.333 254 171s200.833 62.5 311.5 62.5s214.334 -20.833 311.001 -62.5s181.334 -98.667 254.001 -171s129.667 -157 171 -254s62 -200.833 62 -311.5s-20.667 -214.5 -62 -311.5
s-98.333 -181.667 -171 -254s-157.334 -129.333 -254.001 -171s-200.334 -62.5 -311.001 -62.5s-214.5 20.833 -311.5 62.5s-181.667 98.667 -254 171s-129.333 157 -171 254s-62.5 200.833 -62.5 311.5zM338 688c0 -22 11 -32.998 33 -32.998h313v-344
c0 -22 11 -32.667 33 -32h164c22 0 32.667 10.667 32 32v344h314c8 0 15.5 3.16699 22.5 9.5s10.5 14.166 10.5 23.499v158c0 9.33301 -3.5 17.166 -10.5 23.499s-14.5 9.5 -22.5 9.5h-314v346c0 22 -10.667 32.667 -32 32h-164c-22 0 -33 -10.667 -33 -32v-346h-313
c-22 0 -33 -11 -33 -33v-158z" />
    <glyph glyph-name="uniF056" unicode="&#xf056;" 
d="M0 768c0 110.667 20.833 214.5 62.5 311.5s98.667 181.667 171 254s157 129.333 254 171s200.833 62.5 311.5 62.5s214.334 -20.833 311.001 -62.5s181.334 -98.667 254.001 -171s129.667 -157 171 -254s62 -200.833 62 -311.5s-20.667 -214.5 -62 -311.5
s-98.333 -181.667 -171 -254s-157.334 -129.333 -254.001 -171s-200.334 -62.5 -311.001 -62.5s-214.5 20.833 -311.5 62.5s-181.667 98.667 -254 171s-129.333 157 -171 254s-62.5 200.833 -62.5 311.5zM338 688c0 -22 11 -32.998 33 -32.998h856
c8 0 15.5 3.16699 22.5 9.5s10.5 14.166 10.5 23.499v158c0 9.33301 -3.5 17.166 -10.5 23.499s-14.5 9.5 -22.5 9.5h-856c-22 0 -33 -11 -33 -33v-158z" />
    <glyph glyph-name="uniF057" unicode="&#xf057;" 
d="M0 770c0 102.667 19.5 203.168 58.5 301.501s97.167 186.166 174.5 263.499c78 78 166.167 136.5 264.5 175.5s198.666 58.5 300.999 58.5s202.666 -19.5 300.999 -58.5s186.5 -97.5 264.5 -175.5s136.333 -166 175 -264s58 -198.333 58 -301s-19.333 -203 -58 -301
s-97 -186 -175 -264s-166.167 -136.5 -264.5 -175.5s-198.666 -58.5 -300.999 -58.5s-202.666 19.5 -300.999 58.5s-186.5 97.5 -264.5 175.5s-136.333 166 -175 264s-58 198.333 -58 301zM385 505.001c0 -8.66699 3.33496 -16.666 10.002 -23.999l115 -116
c6.66699 -6.66699 14.5 -10.167 23.5 -10.5s16.833 3.16699 23.5 10.5l244 243l219 -221c6.66699 -6.66699 14.5 -10 23.5 -10s16.833 3.33301 23.5 10l113 113c15.333 15.333 15.333 31 0 47l-222 219l246 246c15.333 15.333 15.333 31 0 47l-117 115
c-16.667 16.667 -32.334 16.667 -47.001 0l-243 -244l-222 221c-6.66699 6.66699 -14.334 10 -23.001 10s-16.667 -3.33301 -24 -10l-110 -113c-16.667 -15.333 -16.667 -31 0 -47l219 -219l-242 -244c-6.66699 -6.66699 -10 -14.334 -10 -23.001z" />
    <glyph glyph-name="uniF058" unicode="&#xf058;" 
d="M0 768c0 110.667 20.833 214.5 62.5 311.5s98.667 181.667 171 254s157 129.333 254 171s200.833 62.5 311.5 62.5s214.334 -20.833 311.001 -62.5s181.334 -98.667 254.001 -171s129.667 -157 171 -254s62 -200.833 62 -311.5s-20.667 -214.5 -62 -311.5
s-98.333 -181.667 -171 -254s-157.334 -129.333 -254.001 -171s-200.334 -62.5 -311.001 -62.5s-214.5 20.833 -311.5 62.5s-181.667 98.667 -254 171s-129.333 157 -171 254s-62.5 200.833 -62.5 311.5zM240 718c0 -13.333 4.66797 -24.666 14.001 -33.999l319 -319
c9.33301 -9.33301 22 -17.5 38 -24.5s30.667 -10.5 44 -10.5h56c13.333 0 27.833 3.33301 43.5 10s28.5 15 38.5 25l550 550c9.33301 9.33301 14.166 20.666 14.499 33.999s-4.5 24.666 -14.5 33.999l-104 107c-10.667 9.33301 -22.5 14 -35.5 14s-24.5 -4.66699 -34.5 -14
l-452 -453c-9.33301 -9.33301 -20.5 -14 -33.5 -14s-24.5 4.66699 -34.5 14l-221 221c-9.33301 9.33301 -20.5 14 -33.5 14s-25.167 -4.66699 -36.5 -14l-104 -106c-9.33301 -9.33301 -14 -20.666 -14 -33.999z" />
    <glyph glyph-name="uniF059" unicode="&#xf059;" 
d="M0 768c0 110.667 20.833 214.5 62.5 311.5s98.667 181.667 171 254s157 129.333 254 171s200.833 62.5 311.5 62.5s214.334 -20.833 311.001 -62.5s181.334 -98.667 254.001 -171s129.667 -157 171 -254s62 -200.833 62 -311.5s-20.667 -214.5 -62 -311.5
s-98.333 -181.667 -171 -254s-157.334 -129.333 -254.001 -171s-200.334 -62.5 -311.001 -62.5s-214.5 20.833 -311.5 62.5s-181.667 98.667 -254 171s-129.333 157 -171 254s-62.5 200.833 -62.5 311.5zM532 1100l94.999 -114.999
c2.66699 -5.33301 9.33398 -9.33301 20.001 -12c8 0 15.667 2 23 6l10 8c6.66699 5.33301 15.834 11.166 27.501 17.499s24.667 11.833 39 16.5s29.833 7 46.5 7c27.333 0 50.5 -7.5 69.5 -22.5s28.5 -34.167 28.5 -57.5c0 -24.667 -8.16699 -46.167 -24.5 -64.5
s-36.833 -38.5 -61.5 -60.5c-15.333 -12 -30.833 -25.5 -46.5 -40.5s-30 -32.167 -43 -51.5s-23.5 -40.5 -31.5 -63.5s-12 -49.5 -12 -79.5v-64c0 -8 3 -15 9 -21s13 -9 21 -9h164c8 0 14.833 3 20.5 9s8.5 13 8.5 21v51c0 26 8.5 48.167 25.5 66.5s37.833 38.5 62.5 60.5
c16.667 13.333 33.167 28.666 49.5 45.999s31.666 36.333 45.999 57s25.833 43.834 34.5 69.501s13 55.834 13 90.501c0 45.333 -9.16699 85.666 -27.5 120.999s-42.833 64.5 -73.5 87.5s-65.167 40.667 -103.5 53s-76.5 18.5 -114.5 18.5c-42 0 -79.833 -5.5 -113.5 -16.5
s-62.167 -22.833 -85.5 -35.5s-41 -24.5 -53 -35.5s-18.667 -17.167 -20 -18.5c-10.667 -10.667 -11.667 -23.667 -3 -39zM671.999 252.001c0 -8 3 -15.167 9 -21.5s13 -9.5 21 -9.5h164c8 0 14.833 3.16699 20.5 9.5s8.5 13.5 8.5 21.5v156c0 8 -2.66699 15 -8 21
s-12.333 9 -21 9h-164c-8 0 -15 -3 -21 -9s-9 -13 -9 -21v-156z" />
    <glyph glyph-name="uniF05A" unicode="&#xf05a;" 
d="M0 768c0 110.667 20.833 214.5 62.5 311.5s98.667 181.667 171 254s157 129.333 254 171s200.833 62.5 311.5 62.5s214.334 -20.833 311.001 -62.5s181.334 -98.667 254.001 -171s129.667 -157 171 -254s62 -200.833 62 -311.5s-20.667 -214.5 -62 -311.5
s-98.333 -181.667 -171 -254s-157.334 -129.333 -254.001 -171s-200.334 -62.5 -311.001 -62.5s-214.5 20.833 -311.5 62.5s-181.667 98.667 -254 171s-129.333 157 -171 254s-62.5 200.833 -62.5 311.5zM573 858c0 -19.333 9.66699 -29 29 -29h86v-409h-78
c-8 0 -15 -2.83301 -21 -8.5s-9 -12.5 -9 -20.5v-139c0 -8 3 -15.167 9 -21.5s13 -9.5 21 -9.5h402c8 0 14.667 3.16699 20 9.5s8 13.5 8 21.5v139c0 19.333 -9.33301 29 -28 29h-78v577c0 8 -2.66699 15.167 -8 21.5s-12.333 9.5 -21 9.5h-303c-8 0 -14.833 -3 -20.5 -9
s-8.5 -13.333 -8.5 -22v-139zM686 1151c0 -8 3.16699 -15.167 9.5 -21.5s13.5 -9.5 21.5 -9.5h188c8 0 14.833 3.16699 20.5 9.5s8.5 13.5 8.5 21.5v166c0 19.333 -9.66699 29 -29 29h-188c-8 0 -15.167 -2.83301 -21.5 -8.5s-9.5 -12.5 -9.5 -20.5v-166z" />
    <glyph glyph-name="uniF05E" unicode="&#xf05e;" 
d="M0 768c0 110.667 20.833 214.5 62.5 311.5s98.667 181.667 171 254s157 129.333 254 171s200.833 62.5 311.5 62.5s214.334 -20.833 311.001 -62.5s181.334 -98.667 254.001 -171s129.667 -157 171 -254s62 -200.833 62 -311.5s-20.667 -214.5 -62 -311.5
s-98.333 -181.667 -171 -254s-157.334 -129.333 -254.001 -171s-200.334 -62.5 -311.001 -62.5s-214.5 20.833 -311.5 62.5s-181.667 98.667 -254 171s-129.333 157 -171 254s-62.5 200.833 -62.5 311.5zM240 768c0 -56 7.83105 -109.334 23.498 -160.001
s37.834 -97.667 66.501 -141l770 770c-44 28.667 -91.167 50.834 -141.5 66.501s-103.5 23.5 -159.5 23.5c-78 0 -150.833 -14.667 -218.5 -44s-126.667 -69.333 -177 -120s-90.166 -109.667 -119.499 -177s-44 -140 -44 -218zM497.998 296.999
c44 -27.333 91.167 -48.833 141.5 -64.5s103.5 -23.5 159.5 -23.5c78 0 150.667 14.667 218 44s126.333 69.333 177 120s90.667 109.667 120 177s44 140 44 218c0 56 -7.83301 109.333 -23.5 160s-37.167 97.667 -64.5 141z" />
    <glyph glyph-name="uniF060" unicode="&#xf060;" horiz-adv-x="1536" 
d="M0 768c0 26 9.66797 48.666 29.001 67.999l671 673c19.333 19.333 42 29 68 29s48.667 -9.66699 68 -29l100 -100c19.333 -19.333 29 -41.833 29 -67.5s-9.66699 -48.167 -29 -67.5l-338 -338h842c27.333 0 50.166 -9.16699 68.499 -27.5s27.5 -41.166 27.5 -68.499v-144
c0 -26 -9.16699 -48.167 -27.5 -66.5s-40.5 -27.5 -66.5 -27.5h-844l338 -338c19.333 -19.333 29 -41.833 29 -67.5s-9.66699 -48.167 -29 -67.5l-100 -100c-19.333 -19.333 -42 -29 -68 -29s-48.667 9.66699 -68 29l-671 671c-19.333 19.333 -29 42 -29 68z" />
    <glyph glyph-name="uniF061" unicode="&#xf061;" horiz-adv-x="1536" 
d="M0 698v143.999c0 26 9.16699 48.167 27.5 66.5s40.5 27.5 66.5 27.5h844l-338 338c-19.333 19.333 -29 41.833 -29 67.5s9.66699 48.167 29 67.5l100 100c19.333 19.333 42 29 68 29s48.667 -9.66699 68 -29l671 -673c19.333 -19.333 29 -41.666 29 -66.999
s-9.66699 -47.666 -29 -66.999l-671 -673c-19.333 -19.333 -42 -29 -68 -29s-48.667 9.66699 -68 29l-100 100c-19.333 19.333 -29 42 -29 68s9.66699 48.333 29 67l338 338h-844c-26 0 -48.167 9.16699 -66.5 27.5s-27.5 41.166 -27.5 68.499z" />
    <glyph glyph-name="uniF062" unicode="&#xf062;" horiz-adv-x="1536" 
d="M0 768c-0.666992 26 8.66699 48.667 28 68l673 671c19.333 19.333 42 29 68 29s48.667 -9.66699 68 -29l671 -671c19.333 -19.333 29 -42 29 -68s-9.66699 -48.667 -29 -68l-100 -100c-19.333 -19.333 -41.5 -29 -66.5 -29s-47.167 9.66699 -66.5 29l-340 338v-844
c0 -26 -9.16699 -48.167 -27.5 -66.5s-40.5 -27.5 -66.5 -27.5h-144c-27.333 0 -49.833 9.16699 -67.5 27.5s-26.5 40.5 -26.5 66.5v844l-338 -338c-19.333 -19.333 -41.833 -29 -67.5 -29s-48.167 9.66699 -67.5 29l-100 100c-19.333 19.333 -29.333 42 -30 68z" />
    <glyph glyph-name="uniF063" unicode="&#xf063;" horiz-adv-x="1536" 
d="M0 766c0 26 9.66699 48.667 29 68l100 100c19.333 19.333 42 29 68 29s48.333 -9.66699 67 -29l338 -338v844c0 26 9.16699 48.167 27.5 66.5s40.5 27.5 66.5 27.5h144c27.333 0 49.833 -9.16699 67.5 -27.5s26.5 -40.5 26.5 -66.5v-844l340 338
c19.333 19.333 41.5 29 66.5 29s47.167 -9.66699 66.5 -29l102 -100c19.333 -19.333 29 -42 29 -68s-9.66699 -48.667 -29 -68l-673 -671c-19.333 -19.333 -42 -29 -68 -29s-48.667 9.66699 -68 29l-671 671c-19.333 19.333 -29 42 -29 68z" />
    <glyph glyph-name="uniF067" unicode="&#xf067;" horiz-adv-x="1536" 
d="M0 696l-0.000976562 144c0 26 9.16699 48.167 27.5 66.5s40.5 27.5 66.5 27.5h508v506c0 27.333 8.83301 50.166 26.5 68.499s40.167 27.5 67.5 27.5h144c26 0 48.167 -9.16699 66.5 -27.5s27.5 -40.5 27.5 -66.5v-508h508c26 0 48.167 -9.16699 66.5 -27.5
s27.5 -40.5 27.5 -66.5v-144c0 -26 -9.16699 -48.167 -27.5 -66.5s-40.5 -27.5 -66.5 -27.5h-508v-506c0 -27.333 -9.16699 -50.166 -27.5 -68.499s-40.5 -27.5 -66.5 -27.5h-144c-26 0 -48.167 9.16699 -66.5 27.5s-27.5 40.5 -27.5 66.5v508h-506
c-27.333 0 -50.166 8.83301 -68.499 26.5s-27.5 40.167 -27.5 67.5z" />
    <glyph glyph-name="uniF068" unicode="&#xf068;" horiz-adv-x="1536" 
d="M0 696l-0.000976562 144c0 26 9.16699 48.167 27.5 66.5s40.5 27.5 66.5 27.5h1348c26 0 48.167 -9.16699 66.5 -27.5s27.5 -40.5 27.5 -66.5v-144c0 -26 -9.16699 -48.167 -27.5 -66.5s-40.5 -27.5 -66.5 -27.5h-1346c-27.333 0 -50.166 8.83301 -68.499 26.5
s-27.5 40.167 -27.5 67.5z" />
    <glyph glyph-name="uniF06A" unicode="&#xf06a;" 
d="M0 768c0 110.667 20.833 214.5 62.5 311.5s98.667 181.667 171 254s157 129.333 254 171s200.833 62.5 311.5 62.5s214.334 -20.833 311.001 -62.5s181.334 -98.667 254.001 -171s129.667 -157 171 -254s62 -200.833 62 -311.5s-20.667 -214.5 -62 -311.5
s-98.333 -181.667 -171 -254s-157.334 -129.333 -254.001 -171s-200.334 -62.5 -311.001 -62.5s-214.5 20.833 -311.5 62.5s-181.667 98.667 -254 171s-129.333 157 -171 254s-62.5 200.833 -62.5 311.5zM672 1274l13.999 -739c2.66699 -19.333 13 -29 31 -29h162
c8 0 15 2.66699 21 8s9 12.333 9 21l17 739c0 6.66699 -2.66699 14 -8 22c-5.33301 5.33301 -13 8.33301 -23 9h-193c-9.33301 0 -16.666 -3 -21.999 -9c-5.33301 -8 -8 -15.333 -8 -22zM679.999 236c0 -8 2.66699 -15.167 8 -21.5s12.333 -9.5 21 -9.5h180
c8 0 15.167 3 21.5 9s9.5 13.333 9.5 22v174c0 8 -3.16699 15 -9.5 21s-13.5 9 -21.5 9h-180c-8 0 -14.833 -3 -20.5 -9s-8.5 -13 -8.5 -21v-174z" />
    <glyph glyph-name="uniF071" unicode="&#xf071;" horiz-adv-x="1775" 
d="M0 92c0 13.333 1.99805 26.332 5.99805 38.999s9.66699 24.334 17 35.001l768 1331c10.667 18 23.834 34.167 39.501 48.5s34.5 21.5 56.5 21.5s40.833 -7.16699 56.5 -21.5s28.834 -30.5 39.501 -48.5l770 -1331c6.66699 -10.667 12.167 -22.167 16.5 -34.5
s6.5 -25.5 6.5 -39.5c0 -32.667 -12.667 -56.167 -38 -70.5s-52.333 -21.5 -81 -21.5h-1538c-28.667 0 -55.667 7.16699 -81 21.5s-38 37.833 -38 70.5zM769.998 1114l12 -633c0 -9.33301 3.5 -17.5 10.5 -24.5s15.167 -10.5 24.5 -10.5h139c9.33301 0 17.5 3.5 24.5 10.5
s10.5 15.167 10.5 24.5l15 633c0 9.33301 -3.5 17.5 -10.5 24.5s-15.167 10.5 -24.5 10.5h-166c-10.667 0 -19.167 -3.5 -25.5 -10.5s-9.5 -15.167 -9.5 -24.5zM775.998 167.999c0 -10.667 3.50098 -19.167 10.501 -25.5s15.167 -9.5 24.5 -9.5h154
c23.333 0 34.666 11.667 33.999 35v147c0 10.667 -3 19.5 -9 26.5s-14.333 10.5 -25 10.5h-154c-9.33301 0 -17.5 -3.33301 -24.5 -10s-10.5 -15.667 -10.5 -27v-147z" />
    <glyph glyph-name="uniF073" unicode="&#xf073;" horiz-adv-x="1566" 
d="M0 117l-0.000976562 1147c0 31.333 11.667 58.5 35 81.5s50.666 34.5 81.999 34.5h39v13c0 20.667 3.33301 41.5 10 62.5s17.5 39.667 32.5 56s34.833 29.666 59.5 39.999s54.667 15.5 90 15.5s65.333 -5.16699 90 -15.5s44.5 -23.666 59.5 -39.999
s26 -35.166 33 -56.499s10.5 -42 10.5 -62v-13h49v13c0 20.667 3.33301 41.5 10 62.5s17.5 39.667 32.5 56s34.833 29.666 59.5 39.999s54.667 15.5 90 15.5s65.333 -5.16699 90 -15.5s44.834 -23.666 60.501 -39.999s27 -35.166 34 -56.499s10.5 -42 10.5 -62v-13h49v13
c0 20.667 3.5 41.5 10.5 62.5s18 39.667 33 56s34.667 29.666 59 39.999s54.5 15.5 90.5 15.5c35.333 0 65.333 -5.16699 90 -15.5s44.5 -23.666 59.5 -39.999s25.833 -35.166 32.5 -56.499s10 -42 10 -62v-13h39c31.333 0 58.666 -11.5 81.999 -34.5s35 -50.167 35 -81.5
v-1147c0 -31.333 -11.667 -58.666 -35 -81.999s-50.666 -35 -81.999 -35h-1333c-31.333 0 -58.666 11.667 -81.999 35s-35 50.666 -35 81.999zM157.999 157.997h282v250h-282v-250zM157.999 445.997h282v252h-282v-252zM157.999 736.997h282v252h-282v-252zM271.999 1165
c0 -38 25.333 -57 76 -57s76 19 76 57v228c0 38 -25.333 57 -76 57s-76 -19 -76 -57v-228zM478.999 157.997h285v250h-285v-250zM478.999 445.997h285v252h-285v-252zM478.999 736.997h285v252h-285v-252zM708.999 1165c0 -20.667 5.33301 -35.3311 16 -43.998
s29.667 -13 57 -13s46.833 4.5 58.5 13.5s17.5 23.5 17.5 43.5v228c0 19.333 -5.83301 33.666 -17.5 42.999s-31.167 14 -58.5 14s-46.333 -4.83301 -57 -14.5s-16 -23.834 -16 -42.501v-228zM802.999 158h284v250h-284v-250zM802.999 446h284v252h-284v-252zM802.999 737
h284v252h-284v-252zM1126 158h283v250h-283v-250zM1126 446h283v252h-283v-252zM1126 737h283v252h-283v-252zM1143 1165c0 -38 25.333 -57 76 -57s75.667 19 75 57v228c0 38 -25 57 -75 57c-50.667 0 -76 -19 -76 -57v-228z" />
    <glyph glyph-name="uniF075" unicode="&#xf075;" horiz-adv-x="1916" 
d="M0 866c0 96.667 25.332 187.499 75.999 272.499s119.334 159.167 206.001 222.5s187.834 113.5 303.501 150.5s239.834 55.5 372.501 55.5s257 -18.5 373 -55.5s217.333 -87.167 304 -150.5s155.334 -137.333 206.001 -222s76 -175.667 76 -273
c0 -96.667 -25.333 -187.334 -76 -272.001s-119.334 -158.834 -206.001 -222.501s-188 -113.834 -304 -150.501s-240.333 -55 -373 -55c-61.333 0 -121.333 4 -180 12c-117.333 -92.667 -254.333 -156.667 -411 -192l-50.5 -8.5c-17 -3 -35.167 -5.83301 -54.5 -8.5
c-10.667 -1.33301 -19.834 0.833984 -27.501 6.50098s-12.834 13.834 -15.501 24.501s-1 19.5 5 26.5s12.667 13.833 20 20.5l43 44.5c13.333 14.333 25.5 31.333 36.5 51s21 42.834 30 69.501s16.833 59 23.5 97c-116 65.333 -207.833 145.833 -275.5 241.5
s-101.5 200.834 -101.5 315.501z" />
    <glyph glyph-name="uniF077" unicode="&#xf077;" horiz-adv-x="1536" 
d="M0 355.5c-0.666992 25 8.66699 47.166 28 66.499l673 674c19.333 19.333 42 28.833 68 28.5s48.667 -9.83301 68 -28.5l671 -674c19.333 -19.333 29 -41.666 29 -66.999s-9.66699 -47.333 -29 -66l-100 -103c-19.333 -19.333 -42 -28.833 -68 -28.5
s-48.333 9.83301 -67 28.5l-508 510l-500 -510c-19.333 -19.333 -41.833 -28.833 -67.5 -28.5s-48.167 9.83301 -67.5 28.5l-100 103c-19.333 19.333 -29.333 41.5 -30 66.5z" />
    <glyph glyph-name="uniF078" unicode="&#xf078;" horiz-adv-x="1536" 
d="M0 918.5c0 25 9.66602 47.167 28.999 66.5l100 102c19.333 19.333 42 29 68 29s48.333 -9.66699 67 -29l508 -509l500 509c19.333 19.333 41.833 29 67.5 29s48.167 -9.66699 67.5 -29l100 -102c19.333 -19.333 29.333 -41.5 30 -66.5s-8.66602 -47.167 -27.999 -66.5
l-673 -674c-19.333 -19.333 -42 -28.833 -68 -28.5s-48.667 9.83301 -68 28.5l-671 674c-19.333 19.333 -29 41.5 -29 66.5z" />
    <glyph glyph-name="uniF084" unicode="&#xf084;" horiz-adv-x="1916" 
d="M6 803.5c-4 74.333 6.00098 151.168 30.001 230.501s61.667 155.333 113 228c52 72.667 111.833 132.667 179.5 180s137.334 81.333 209.001 102s142.667 26.5 213 17.5s134.166 -33.833 191.499 -74.5c50.667 -35.333 91 -80 121 -134s49.667 -112.833 59 -176.5
s8 -130 -4 -199s-34.667 -136.833 -68 -203.5l414 -297l101 139l-105 74c-9.33301 6.66699 -15 15.834 -17 27.501s0.333008 22.5 7 32.5l51 69c6.66699 9.33301 15.5 15.166 26.5 17.499s21.833 -0.166992 32.5 -7.5l344 -247
c10.667 -6.66699 16.834 -15.834 18.501 -27.501s-0.833008 -22.5 -7.5 -32.5l-49 -69c-6.66699 -9.33301 -15.834 -15.166 -27.501 -17.499s-22.5 -0.166016 -32.5 6.50098l-102 76l-101 -139l248 -178c28.667 -20.667 46.167 -48.334 52.5 -83.001
s-0.833984 -66.334 -21.501 -95.001c-22 -28.667 -50 -45.834 -84 -51.501s-65.333 1.83301 -94 22.5l-803 573c-52 -53.333 -108.667 -96.666 -170 -129.999s-123.5 -56.166 -186.5 -68.499s-124.833 -13 -185.5 -2s-116.334 34.833 -167.001 71.5
c-57.333 40.667 -101.666 93.167 -132.999 157.5s-49 133.666 -53 207.999zM236.501 766.002c5 -27.333 14.999 -53.3311 29.999 -77.998s34.5 -45.667 58.5 -63c24.667 -18 51 -30 79 -36s55.667 -6.66699 83 -2s53.333 14.5 78 29.5s46 34.833 64 59.5
c26 35.333 39.667 73.5 41 114.5s-7.66699 79.167 -27 114.5c39.333 -6.66699 78.166 -2.83398 116.499 11.499s70.5 39.166 96.5 74.499c18 24.667 30 51 36 79s6.66699 56 2 84s-14.5 54.333 -29.5 79s-34.833 45.667 -59.5 63c-24.667 18 -51 30 -79 36
s-56 6.66699 -84 2s-54.333 -14.5 -79 -29.5s-45.667 -34.833 -63 -59.5c-24.667 -35.333 -37.667 -73.5 -39 -114.5s7.33398 -79.167 26.001 -114.5c-39.333 6.66699 -78.166 2.5 -116.499 -12.5s-70.5 -40.167 -96.5 -75.5c-18 -24.667 -30 -51 -36 -79
s-6.5 -55.667 -1.5 -83z" />
    <glyph glyph-name="uniF086" unicode="&#xf086;" horiz-adv-x="1916" 
d="M0 997c0 79.333 20.498 153.498 61.498 222.498s96.667 129.167 167 180.5s152.5 92 246.5 122s195 45 303 45s209.167 -15 303.5 -45s176.666 -70.667 246.999 -122s125.833 -111.5 166.5 -180.5s61 -143.167 61 -222.5c0 -78 -20.333 -151.667 -61 -221
s-96.167 -129.666 -166.5 -180.999s-152.666 -92 -246.999 -122s-195.5 -45 -303.5 -45c-24.667 0 -49.167 1 -73.5 3s-48.166 4.33301 -71.499 7c-98 -75.333 -210 -127 -336 -155c-13.333 -2.66699 -26.833 -5.16699 -40.5 -7.5l-43.5 -7.5
c-8 -1.33301 -15.167 0.833984 -21.5 6.50098s-10.833 11.834 -13.5 18.501v2c-2.66699 8 -1.66699 14.5 3 19.5s10.667 10.833 18 17.5c12 12 23.5 24.167 34.5 36.5s20.833 26.333 29.5 42s16.834 34.167 24.501 55.5s14.167 47.666 19.5 78.999
c-94 52 -168.667 117.167 -224 195.5s-83 163.833 -83 256.5zM648.998 257.998c4 2.66699 8.5 5.33105 13.5 7.99805s9.5 5.33398 13.5 8.00098c34 -4 68 -6 102 -6c131.333 0 254.333 18.833 369 56.5s214 89.334 298 155.001s150.167 142.834 198.5 231.501
s72.5 184 72.5 286c0 27.333 -2 55.333 -6 84c64 -52 114.5 -110.333 151.5 -175s55.5 -134 55.5 -208c0 -92.667 -27.667 -178.167 -83 -256.5s-130 -143.5 -224 -195.5c5.33301 -31.333 11.666 -57.666 18.999 -78.999s15.833 -39.833 25.5 -55.5s19.667 -29.667 30 -42
s21.5 -24.5 33.5 -36.5c6.66699 -6.66699 12.5 -12.834 17.5 -18.501s6.16699 -11.834 3.5 -18.501v-2c-1.33301 -8 -5.5 -14.5 -12.5 -19.5s-14.5 -6.83301 -22.5 -5.5l-43.5 7.5c-13.667 2.33301 -27.167 4.83301 -40.5 7.5c-64 13.333 -124 33.333 -180 60
s-108 58.334 -156 95.001c-23.333 -2.66699 -47.166 -5 -71.499 -7s-48.833 -3 -73.5 -3c-94 0 -182.333 11.667 -265 35s-157.667 54.666 -225 93.999z" />
    <glyph glyph-name="uniF08A" unicode="&#xf08a;" horiz-adv-x="1802" 
d="M0 1073c0 91.333 14.3369 168.499 43.0039 231.499s66.167 114 112.5 153s98.5 67 156.5 84s117 25.5 177 25.5c42 0 83.667 -7.16699 125 -21.5s79.666 -32.166 114.999 -53.499s67.666 -44.666 96.999 -69.999s54.333 -48 75 -68c20.667 20.667 46 43.5 76 68.5
s62.667 48.167 98 69.5s73.166 39.166 113.499 53.499s82.5 21.5 126.5 21.5c58.667 0 117 -8.5 175 -25.5s110.167 -45 156.5 -84s83.833 -90 112.5 -153s43 -140.167 43 -231.5c0 -62.667 -11.5 -121.667 -34.5 -177s-48.5 -104.166 -76.5 -146.499
s-54.333 -76.5 -79 -102.5s-37.667 -40.333 -39 -43l-615 -612c-17.333 -15.333 -36.333 -23 -57 -23c-22 0 -40.333 7.66699 -55 23l-617 614c-2.66699 1.33301 -15.834 15 -39.501 41s-49.5 60.167 -77.5 102.5s-53.667 91.166 -77 146.499s-35 114.333 -35 177z
M160.004 1073c0 -45.333 9.16895 -88.998 27.502 -130.998s38.833 -79.5 61.5 -112.5s43.667 -59.5 63 -79.5l28 -29l561 -559l561 559l29 29c19.333 20 40.166 46.5 62.499 79.5s42.666 70.667 60.999 113s27.5 85.833 27.5 130.5c0 69.333 -9.83301 125.666 -29.5 168.999
s-45.5 77.166 -77.5 101.499s-67.5 41 -106.5 50s-76.833 13.5 -113.5 13.5c-35.333 0 -71.166 -8.5 -107.499 -25.5s-70.5 -37.5 -102.5 -61.5s-60.667 -48.667 -86 -74s-44 -45.333 -56 -60c-16.667 -20.667 -37.334 -31 -62.001 -31s-45 10.333 -61 31
c-12 15.333 -30.833 35.5 -56.5 60.5s-54.5 49.5 -86.5 73.5s-66.167 44.5 -102.5 61.5s-71.5 25.5 -105.5 25.5c-38 0 -76.5 -4.5 -115.5 -13.5s-74.5 -25.667 -106.5 -50s-57.833 -58 -77.5 -101s-29.5 -99.5 -29.5 -169.5z" />
    <glyph glyph-name="uniF095" unicode="&#xf095;" 
d="M0 1169c0 36.667 4.83301 74.8408 14.5 114.508s24 77.667 43 114s41.833 69.166 68.5 98.499s57.667 52.333 93 69c8 -1.33301 16.833 -1.33301 26.5 0s18.5 2 26.5 2c6.66699 0 16.667 -0.333008 30 -1l40 -2c13.333 -0.666992 26.166 -2.16699 38.499 -4.5
s21.5 -4.83301 27.5 -7.5c5.33301 -4 10.333 -10 15 -18s8.66699 -16.833 12 -26.5s6.5 -19.667 9.5 -30s5.83301 -18.833 8.5 -25.5c4 -12 11.833 -33.833 23.5 -65.5l35.5 -97.5l32.5 -93c9.66699 -28.667 14.5 -46.334 14.5 -53.001
c0 -24.667 -8.16699 -47.334 -24.5 -68.001s-34.333 -39.834 -54 -57.501l-54.5 -50c-16.667 -15.667 -25 -30.834 -25 -45.501c0 -13.333 5.5 -29.666 16.5 -48.999l26.5 -46c56 -96.667 118.833 -179.5 188.5 -248.5s153.834 -131.5 252.501 -187.5
c12 -6.66699 27.167 -15.834 45.5 -27.501s35.166 -17.5 50.499 -17.5s32.833 10.667 52.5 32s39.667 44.833 60 70.5s41 49.167 62 70.5s40.5 32 58.5 32c6.66699 0 23.834 -7.5 51.501 -22.5l89.5 -50l93 -55.5c30 -18.667 50.333 -30.667 61 -36
c10.667 -6.66699 26 -15.167 46 -25.5s33.333 -22.166 40 -35.499c1.33301 -4 2 -11.667 2 -23c0 -10.667 -1 -22.834 -3 -36.501s-4.66699 -28 -8 -43s-7.33301 -29.333 -12 -43s-9 -25.5 -13 -35.5c-12 -26 -31.833 -49.833 -59.5 -71.5s-58.5 -40 -92.5 -55
s-68.833 -27 -104.5 -36s-66.5 -13.5 -92.5 -13.5c-53.333 0 -104.5 8.5 -153.5 25.5s-97.5 35.167 -145.5 54.5c-82 30 -159.5 69.333 -232.5 118s-140.833 103.334 -203.5 164.001s-121 126.167 -175 196.5s-102 142.166 -144 215.499
c-16.667 27.333 -34.167 59.166 -52.5 95.499s-35.333 73.666 -51 111.999s-28.667 76.166 -39 113.499s-15.5 72.333 -15.5 105z" />
    <glyph glyph-name="uniF09C" unicode="&#xf09c;" horiz-adv-x="1880" 
d="M0 117l-0.000976562 626c0 32.667 11.667 60.667 35 84s50.666 35 81.999 35h665v156c0 75.333 14.333 146.333 43 213s68 125 118 175s108.333 89.333 175 118s137.667 43 213 43s146.5 -14.333 213.5 -43s125.333 -68 175 -118s88.834 -108.5 117.501 -175.5
s43 -137.833 43 -212.5v-152c0 -22 -7.5 -40.5 -22.5 -55.5s-33.5 -22.5 -55.5 -22.5h-80c-22 0 -40.333 7.66699 -55 23s-22 33.666 -22 54.999v152c0 44 -8.33301 85 -25 123s-39 71 -67 99s-61 50.167 -99 66.5s-79 24.5 -123 24.5s-84.667 -8.16699 -122 -24.5
s-70.333 -38.5 -99 -66.5s-51.167 -61.167 -67.5 -99.5s-24.5 -79.166 -24.5 -122.499v-156h119c31.333 0 58.5 -11.5 81.5 -34.5s34.5 -51.167 34.5 -84.5v-626c0 -31.333 -11.5 -58.666 -34.5 -81.999s-50.167 -35 -81.5 -35h-1020c-31.333 0 -58.666 11.667 -81.999 35
s-35 50.666 -35 81.999zM493.999 164h266.001l-66 285c19.333 12 35.166 28.167 47.499 48.5s18.5 42.166 18.5 65.499c0 36.667 -13 68.334 -39 95.001s-57.333 40 -94 40s-68 -13.333 -94 -40s-39 -58.334 -39 -95.001c0 -23.333 6 -45.166 18 -65.499
s27.667 -35.833 47 -46.5z" />
    <glyph glyph-name="uniF0AD" unicode="&#xf0ad;" horiz-adv-x="1593" 
d="M8 242c0 22 4.16309 42.834 12.4961 62.501s19.833 36.834 34.5 51.501l609 609c-10.667 44 -16.334 84.667 -17.001 122c0 65.333 12.667 127.5 38 186.5s59.5 110 102.5 153s93.5 77.167 151.5 102.5s119.667 38 185 38c62.667 0 123.167 -12 181.5 -36
s109.833 -57.667 154.5 -101l-442 -162l-43 -236l184 -153l443 159c-6.66699 -61.333 -23.5 -118.333 -50.5 -171s-61.667 -98.334 -104 -137.001s-90.666 -69 -144.999 -91s-112.5 -33 -174.5 -33c-40.667 0 -83 5.66699 -127 17l-606 -607
c-31.333 -31.333 -68.666 -47 -111.999 -47c-45.333 0 -83.666 15.667 -114.999 47c-15.333 15.333 -32.166 31.166 -50.499 47.499s-35.666 33.666 -51.999 51.999s-30 37.833 -41 58.5s-16.5 43.334 -16.5 68.001zM202.996 242.001c0 -22 7.5 -40.833 22.5 -56.5
s34.167 -23.5 57.5 -23.5c22 0 40.667 7.83301 56 23.5s23 34.5 23 56.5c0 23.333 -7.83301 42.5 -23.5 57.5s-34.167 22.5 -55.5 22.5c-23.333 0 -42.5 -7.66699 -57.5 -23s-22.5 -34.333 -22.5 -57z" />
    <glyph glyph-name="uniF0C0" unicode="&#xf0c0;" horiz-adv-x="1880" 
d="M0 852l-0.00292969 151.999c0 12 0.333008 27.833 1 47.5s4 38.5 10 56.5s15.833 33.5 29.5 46.5s32.834 19.5 57.501 19.5c-30 19.333 -53.833 44.5 -71.5 75.5s-26.5 65.833 -26.5 104.5c0 28.667 5.5 56 16.5 82s26.333 48.833 46 68.5s42.5 35 68.5 46
s53.333 16.5 82 16.5c30 0 58 -5.5 84 -16.5s48.5 -26.333 67.5 -46s34.333 -42.5 46 -68.5s17.5 -53.333 17.5 -82c0 -38 -9.16699 -72.667 -27.5 -104s-42.5 -56.666 -72.5 -75.999c24.667 0 43.834 -6.5 57.501 -19.5s23.5 -28.5 29.5 -46.5s9.66699 -36.833 11 -56.5
s2 -35.5 2 -47.5v-152c-9.33301 -5.33301 -17.166 -11.5 -23.499 -18.5s-15.5 -10.5 -27.5 -10.5h-328c-10.667 0 -19.5 3.5 -26.5 10.5s-14.5 13.167 -22.5 18.5zM157.997 56.999l-0.00292969 387c0 52 15 98.167 45 138.5s62.667 76.833 98 109.5
c6.66699 6.66699 15.167 13.834 25.5 21.501s21.5 12.834 33.5 15.501c12 4 25.667 6.33301 41 7s30.333 2.33398 45 5.00098c40.667 6.66699 84 13.167 130 19.5l135 19.5c-60 38 -108.167 88.5 -144.5 151.5s-54.5 132.167 -54.5 207.5c0 58.667 11.333 114.167 34 166.5
s53.334 97.666 92.001 135.999s84 68.833 136 91.5s107.333 34 166 34s114 -11.333 166 -34s97.333 -53.167 136 -91.5s69.334 -83.666 92.001 -135.999s34 -107.833 34 -166.5c0 -75.333 -18 -144.333 -54 -207s-84.333 -113.334 -145 -152.001
c44 -6.66699 88.833 -13 134.5 -19s89.167 -12.667 130.5 -20c15.333 -2.66699 30.333 -4.33398 45 -5.00098s28.334 -3 41.001 -7c12 -2.66699 23.167 -7.83398 33.5 -15.501s19.5 -14.834 27.5 -21.501c44 -39.333 78.5 -78.166 103.5 -116.499
s37.5 -82.166 37.5 -131.499v-387c-8 -4 -14.667 -8.33301 -20 -13s-11.5 -9.33398 -18.5 -14.001s-14.833 -9.5 -23.5 -14.5s-20.667 -10.167 -36 -15.5h-1368c-23.333 0 -41.5 7.5 -54.5 22.5s-27.5 26.5 -43.5 34.5zM1451.99 851.999v151.999
c0 12 0.666992 27.833 2 47.5s5.16602 38.5 11.499 56.5s16.333 33.5 30 46.5s32.5 19.5 56.5 19.5c-30 19.333 -54.167 44.5 -72.5 75.5s-27.5 65.833 -27.5 104.5c0 28.667 5.5 56 16.5 82s26.333 48.833 46 68.5s42.5 35 68.5 46s54 16.5 84 16.5
c28.667 0 56 -5.5 82 -16.5s48.833 -26.333 68.5 -46s35 -42.5 46 -68.5s16.5 -53.333 16.5 -82c0 -38 -8.83301 -72.667 -26.5 -104s-41.5 -56.666 -71.5 -75.999c24.667 0 43.5 -6.5 56.5 -19.5s22.5 -28.5 28.5 -46.5s9.66699 -36.833 11 -56.5s2 -35.5 2 -47.5v-152
c-8 -5.33301 -15.5 -11.5 -22.5 -18.5s-15.833 -10.5 -26.5 -10.5h-328c-12 0 -21.167 3.5 -27.5 10.5s-14.166 13.167 -23.499 18.5z" />
    <glyph glyph-name="uniF0C5" unicode="&#xf0c5;" 
d="M0 385l0.000976562 707c0 22 5.5 45.5 16.5 70.5s23.833 45.167 38.5 60.5l258 258c15.333 15.333 35.666 28.333 60.999 39s48.666 16 69.999 16h463c20.667 0 38.5 -7.5 53.5 -22.5s22.5 -32.833 22.5 -53.5v-250c10.667 5.33301 22.5 9.83301 35.5 13.5
s26.5 5.5 40.5 5.5h463c20.667 0 38.334 -7.5 53.001 -22.5s22 -32.833 22 -53.5v-1075c0 -22 -7.5 -40.5 -22.5 -55.5s-32.5 -22.5 -52.5 -22.5h-830c-22 0 -40.5 7.5 -55.5 22.5s-22.5 33.5 -22.5 55.5v229h-536c-22 0 -40.5 7.5 -55.5 22.5s-22.5 33.5 -22.5 55.5z
M154.001 461h460v293c0 30 3.5 59 10.5 87s22.167 52.667 45.5 74l159 162v305h-278v-321c0 -20.667 -7.5 -38.5 -22.5 -53.5s-32.833 -22.5 -53.5 -22.5h-321v-524zM186.001 1139h211v211zM768.001 154h676v921h-279v-321c0 -20.667 -7.5 -38.5 -22.5 -53.5
s-32.5 -22.5 -52.5 -22.5h-322v-524zM801.001 831h211v211z" />
    <glyph glyph-name="uniF0C6" unicode="&#xf0c6;" horiz-adv-x="1470" 
d="M0 1128c0 60 11.668 116.666 35.001 169.999s54.666 99.833 93.999 139.5s85.666 71.167 138.999 94.5s110 35 170 35c58.667 0 115 -11.333 169 -34s101.667 -54.334 143 -95.001l655 -656c8 -8 12 -17.333 12 -28c0 -6.66699 -3.66699 -15.5 -11 -26.5
s-16.166 -21.667 -26.499 -32s-21 -19.333 -32 -27s-19.833 -11.5 -26.5 -11.5c-10.667 0 -20.334 4.33301 -29.001 13l-655 655c-27.333 27.333 -58 47.833 -92 61.5s-69.667 20.5 -107 20.5c-38 0 -74 -7.16699 -108 -21.5s-63.667 -34.166 -89 -59.499
s-45.166 -55 -59.499 -89s-21.5 -70.333 -21.5 -109c0 -36.667 6.83301 -72 20.5 -106s34.167 -64.667 61.5 -92l745 -746c36.667 -36.667 81 -55 133 -55c26 0 50.667 5.16699 74 15.5s43.5 24 60.5 41s30.667 37.167 41 60.5s15.5 47.666 15.5 72.999
c0 52 -18.667 96.667 -56 134l-563 563c-19.333 19.333 -42.333 28.666 -69 27.999c-27.333 0 -51 -9.83301 -71 -29.5s-30 -43.167 -30 -70.5s9.66699 -50.666 29 -69.999l475 -475c8 -8 12 -17.333 12 -28c0 -6.66699 -3.66699 -15.5 -11 -26.5
s-16.166 -21.667 -26.499 -32s-21 -19.333 -32 -27s-19.833 -11.5 -26.5 -11.5c-10.667 0 -20.334 4.33301 -29.001 13l-475 473c-23.333 24.667 -41.833 53 -55.5 85s-20.5 65 -20.5 99c0 35.333 6.83301 68.833 20.5 100.5s32.167 59.334 55.5 83.001
s51.166 42.334 83.499 56.001s66.166 20.5 101.499 20.5c34 0 67 -6.83301 99 -20.5s60.333 -32.167 85 -55.5l561 -563c68 -68 102 -150 102 -246c0 -49.333 -9.16699 -95 -27.5 -137s-43.166 -78.667 -74.499 -110s-68.166 -56.333 -110.499 -75s-88.166 -28 -137.499 -28
c-95.333 0 -177.333 34.333 -246 103l-745 745c-40.667 40.667 -72.334 88 -95.001 142s-34 110.333 -34 169z" />
    <glyph glyph-name="uniF0C9" unicode="&#xf0c9;" horiz-adv-x="1843" 
d="M0 78v215c0 20.667 7.5 38.5 22.5 53.5s33.5 22.5 55.5 22.5h1689c20.667 0 38.5 -7.5 53.5 -22.5s22.5 -32.833 22.5 -53.5v-215c0 -22 -7.5 -40.5 -22.5 -55.5s-32.833 -22.5 -53.5 -22.5h-1689c-22 0 -40.5 7.5 -55.5 22.5s-22.5 33.5 -22.5 55.5zM0 659v218
c0 20.667 7.5 38.334 22.5 53.001s33.5 22 55.5 22h1689c20.667 0 38.5 -7.5 53.5 -22.5s22.5 -32.5 22.5 -52.5v-218c0 -20.667 -7.5 -38.334 -22.5 -53.001s-32.833 -22 -53.5 -22h-1689c-22 0 -40.5 7.5 -55.5 22.5s-22.5 32.5 -22.5 52.5zM0 1243v217
c0 20.667 7.5 38.5 22.5 53.5s33.5 22.5 55.5 22.5h1689c20.667 0 38.5 -7.5 53.5 -22.5s22.5 -32.833 22.5 -53.5v-217c0 -20.667 -7.5 -38.5 -22.5 -53.5s-32.833 -22.5 -53.5 -22.5h-1689c-22 0 -40.5 7.5 -55.5 22.5s-22.5 32.833 -22.5 53.5z" />
    <glyph glyph-name="uniF0D1" unicode="&#xf0d1;" horiz-adv-x="1843" 
d="M0 358l-0.00585938 404.001c0 16.667 2 33.834 6 51.501s9.83301 35.334 17.5 53.001s16.667 34.667 27 51s20.833 29.833 31.5 40.5l223 222c10.667 10.667 24.334 21.167 41.001 31.5s33.834 19.166 51.501 26.499s35.334 13.166 53.001 17.499s34.834 6.5 51.501 6.5
h80v198c0 20.667 7.5 38.5 22.5 53.5s32.5 22.5 52.5 22.5h1108c22 0 40.5 -7.5 55.5 -22.5s22.5 -32.833 22.5 -53.5v-1102c0 -20.667 -7.5 -38.334 -22.5 -53.001s-33.5 -22 -55.5 -22h-75v-7c0 -42 -8.33301 -81.833 -25 -119.5s-38.5 -70.167 -65.5 -97.5
s-59.333 -49.166 -97 -65.499s-77.834 -24.5 -120.501 -24.5c-42 0 -81.833 8.16699 -119.5 24.5s-70.167 38.166 -97.5 65.499s-49.166 59.833 -65.499 97.5s-24.5 77.5 -24.5 119.5v7h-307v-7c0 -42 -8.16699 -81.833 -24.5 -119.5s-38.166 -70.167 -65.499 -97.5
s-59.833 -49.166 -97.5 -65.499s-77.5 -24.5 -119.5 -24.5s-81.833 8.16699 -119.5 24.5s-70.167 38.166 -97.5 65.499s-49.166 59.833 -65.499 97.5s-24.5 77.5 -24.5 119.5v7h-78c-20.667 0 -38.5 7.5 -53.5 22.5s-22.5 32.5 -22.5 52.5zM192.994 700.001
l386.999 -0.000976562v369h-78c-6.66699 0 -17.167 -2.66699 -31.5 -8s-24.5 -11 -30.5 -17l-223 -221c-5.33301 -5.33301 -10.666 -15.166 -15.999 -29.499s-8 -24.833 -8 -31.5v-62zM345.993 276c0 -31.333 11.333 -58.166 34 -80.499s49.667 -33.5 81 -33.5
s58.166 11.167 80.499 33.5s33.5 49.166 33.5 80.499s-11.167 58.333 -33.5 81s-49.166 34 -80.499 34s-58.333 -11.167 -81 -33.5s-34 -49.5 -34 -81.5zM1267.99 276c0 -31.333 11.167 -58.166 33.5 -80.499s49.166 -33.5 80.499 -33.5s58.333 11.167 81 33.5
s34 49.166 34 80.499s-11.167 58.333 -33.5 81s-49.5 34 -81.5 34c-31.333 0 -58.166 -11.167 -80.499 -33.5s-33.5 -49.5 -33.5 -81.5z" />
    <glyph glyph-name="uniF0D7" unicode="&#xf0d7;" horiz-adv-x="1228" 
d="M26 967c13.333 31.333 37.335 46.999 72.002 46.999h1075c33.333 0 56.666 -15.667 69.999 -47s7.66602 -59.333 -17.001 -84l-536 -537c-18 -15.333 -36.667 -22.666 -56 -21.999c-19.333 0 -37.666 7.33301 -54.999 22l-536 537
c-24.667 24.667 -30.334 52.667 -17.001 84z" />
    <glyph glyph-name="uniF0D8" unicode="&#xf0d8;" horiz-adv-x="1228" 
d="M26 371c-13.333 31.333 -7.66895 59.333 16.998 84l536 536c15.333 15.333 33.666 23 54.999 23c20.667 0 38.667 -7.66699 54 -23l538 -536c24.667 -24.667 30.334 -52.667 17.001 -84s-36.666 -47 -69.999 -47h-1077c-33.333 0 -56.666 15.667 -69.999 47z" />
    <glyph glyph-name="uniF0D9" unicode="&#xf0d9;" horiz-adv-x="692" 
d="M0 768c0 22 7.66504 40.335 22.998 55.002l538 537c10.667 10.667 23.334 17.667 38.001 21s29.334 1.66602 44.001 -5.00098c15.333 -5.33301 27.333 -14.5 36 -27.5s13 -26.833 13 -41.5v-1076c0 -16.667 -4.33301 -31 -13 -43s-20.667 -21.333 -36 -28
s-30 -8.33398 -44 -5.00098s-26.667 10.333 -38 21l-538 539c-15.333 15.333 -23 33 -23 53z" />
    <glyph glyph-name="uniF0DA" unicode="&#xf0da;" horiz-adv-x="692" 
d="M0 231l0.000976562 1076c0 32.667 15.667 55.667 47 69s59.333 8 84 -16l539 -537c15.333 -15.333 22.666 -33.666 21.999 -54.999c0 -20.667 -7.33301 -38.334 -22 -53.001l-539 -539c-24.667 -24.667 -52.667 -30 -84 -16c-31.333 13.333 -47 37 -47 71z" />
    <glyph glyph-name="uniF0DC" unicode="&#xf0dc;" horiz-adv-x="1228" 
d="M0 584c0 20.667 7.5 38.832 22.5 54.499s32.833 23.5 53.5 23.5h1075c22 0 40.5 -7.66699 55.5 -23s22.5 -33.666 22.5 -54.999c0 -22 -7.66699 -40.667 -23 -56l-536 -536c-15.333 -15.333 -34 -23 -56 -23s-40.333 7.66699 -55 23l-536 536
c-15.333 15.333 -23 34 -23 56zM0 951.998c0 22 7.66797 40.6689 23.001 56.002l536 536c15.333 15.333 33.666 23 54.999 23c22 0 40.667 -7.66699 56 -23l536 -536c15.333 -15.333 23 -34 23 -56c0 -20.667 -7.5 -38.834 -22.5 -54.501s-33.5 -23.5 -55.5 -23.5h-1075
c-20.667 0 -38.5 7.66699 -53.5 23s-22.5 33.666 -22.5 54.999z" />
    <glyph glyph-name="uniF0DD" unicode="&#xf0dd;" horiz-adv-x="1228" 
d="M0 584c0 20.667 7.5 38.832 22.5 54.499s32.833 23.5 53.5 23.5h1077c20.667 0 38.5 -7.66699 53.5 -23s22.5 -33.666 22.5 -54.999c0 -22 -7.66699 -40.667 -23 -56l-536 -536c-15.333 -15.333 -34 -23 -56 -23c-23.333 0 -41 7.66699 -53 23l-538 536
c-15.333 15.333 -23 34 -23 56z" />
    <glyph glyph-name="uniF0DE" unicode="&#xf0de;" horiz-adv-x="1228" 
d="M0 952c0 22 7.66797 40.6689 23.001 56.002l536 536c15.333 15.333 33.666 23 54.999 23c22 0 40.667 -7.66699 56 -23l536 -536c15.333 -15.333 23 -34 23 -56c0 -20.667 -7.5 -38.834 -22.5 -54.501s-32.833 -23.5 -53.5 -23.5h-1077c-20.667 0 -38.5 7.66699 -53.5 23
s-22.5 33.666 -22.5 54.999z" />
    <glyph glyph-name="uniF0E0" unicode="&#xf0e0;" horiz-adv-x="1843" 
d="M0 115l-0.00390625 905.001c6.66699 -6.66699 13.5 -12.5 20.5 -17.5s13.833 -10.167 20.5 -15.5l256 -191.5l252 -195.5l82 -62.5c28.667 -21 58.334 -40 89.001 -57s62.834 -30.667 96.501 -41s68.167 -15.5 103.5 -15.5c36.667 0 71.667 5.16699 105 15.5
s65.333 23.666 96 39.999s60.334 35 89.001 56l84 64.5l252 195.5l256 191.5c6.66699 5.33301 13.5 10.5 20.5 15.5s13.833 10.833 20.5 17.5v-905c0 -31.333 -11.167 -58.333 -33.5 -81s-49.166 -34 -80.499 -34h-1614c-31.333 -0 -58.333 11.333 -81 34s-34 49.667 -34 81
zM1.99609 1434c0 27.333 11.999 51.166 35.999 71.499s49.667 30.5 77 30.5h1614c27.333 0 52.833 -10.167 76.5 -30.5s35.5 -44.166 35.5 -71.499c0 -20.667 -6.16699 -43.667 -18.5 -69s-27.333 -50.333 -45 -75s-36.667 -47.167 -57 -67.5s-38.166 -36.5 -53.499 -48.5
l-241.5 -182.5l-239.5 -182.5c-16.667 -12 -35.834 -27 -57.501 -45s-44.167 -35.167 -67.5 -51.5s-47 -30.333 -71 -42s-46 -17.5 -66 -17.5h-2h-2c-20.667 0 -43 5.83301 -67 17.5s-47.5 25.667 -70.5 42s-45.5 33.5 -67.5 51.5s-41.333 33 -58 45l-239.5 182l-241.5 183
c-15.333 12 -33.166 28.167 -53.499 48.5s-39.333 42.833 -57 67.5s-32.667 49.667 -45 75s-18.5 48.333 -18.5 69z" />
    <glyph glyph-name="uniF0E2" unicode="&#xf0e2;" horiz-adv-x="1591" 
d="M4 662c-2.66699 26 8.99902 41.001 34.999 45.001l158 20c8 1.33301 18 -1.33398 30 -8.00098c8 -5.33301 13 -14.333 15 -27c9.33301 -68 30.333 -131.667 63 -191s73.667 -110.5 123 -153.5s105.666 -76.833 168.999 -101.5s130 -37 200 -37
c76.667 0 149 14.667 217 44s127.333 69.333 178 120s90.667 109.667 120 177s44 140 44 218s-14.667 150.667 -44 218s-69.333 126.333 -120 177s-110.167 90.667 -178.5 120s-140.5 44 -216.5 44c-62.667 0 -123.167 -10.167 -181.5 -30.5
s-111.166 -49.833 -158.499 -88.5l159 -159c23.333 -23.333 31.333 -42.833 24 -58.5s-26.666 -23.5 -57.999 -23.5h-463c-10.667 0 -20.5 2 -29.5 6s-17.167 9.33301 -24.5 16c-16.667 16.667 -24.667 35 -24 55v463c0 31.333 8.16699 50.5 24.5 57.5
s36.166 -1.16699 59.499 -24.5l162 -162c72.667 61.333 152.167 108.166 238.5 140.499s176.833 48.5 271.5 48.5c110.667 0 214.334 -20.833 311.001 -62.5s181.167 -98.667 253.5 -171s129.333 -157 171 -254s62.5 -200.833 62.5 -311.5s-20.833 -214.5 -62.5 -311.5
s-98.667 -181.667 -171 -254s-157 -129.333 -254 -171s-200.5 -62.5 -310.5 -62.5c-100 0 -195 17.5 -285 52.5s-170.5 83.5 -241.5 145.5s-129.833 135.333 -176.5 220s-76.667 176.334 -90 275.001z" />
    <glyph glyph-name="uniF0E5" unicode="&#xf0e5;" horiz-adv-x="1916" 
d="M0 866c0 82 16.3369 157.167 49.0039 225.5s76 129.5 130 183.5s115.5 100.5 184.5 139.5s138.833 69.833 209.5 92.5c62.667 20.667 126.167 35.834 190.5 45.501s129.166 14.5 194.499 14.5s130.166 -4.83301 194.499 -14.5s127.833 -24.834 190.5 -45.501
c70.667 -23.333 140.667 -54.333 210 -93s131 -85 185 -139s97.333 -115.167 130 -183.5s49 -143.5 49 -225.5s-16.333 -157 -49 -225s-76 -129 -130 -183s-115.5 -100.833 -184.5 -140.5s-139.167 -70.5 -210.5 -92.5c-62.667 -20.667 -126 -35.667 -190 -45
s-129 -14 -195 -14c-61.333 0 -121.333 4 -180 12c-61.333 -48 -126.5 -87.667 -195.5 -119s-140.833 -55.666 -215.5 -72.999c-18 -2.66699 -36.5 -6.16699 -55.5 -10.5s-36.833 -6.5 -53.5 -6.5c-10.667 0 -19.834 3.83301 -27.501 11.5s-11.5 16.834 -11.5 27.501
c0 8 2.83301 15.167 8.5 21.5s11.167 12.166 16.5 17.499c20.667 22 38.334 42.167 53.001 60.5s27.167 37.5 37.5 57.5s18.666 41.5 24.999 64.5s12.166 49.5 17.499 79.5c-52 28.667 -100.5 62.167 -145.5 100.5s-85 81 -120 128s-62.333 98.167 -82 153.5
s-29.5 113.666 -29.5 174.999zM160.004 866c0 -48 8.16797 -92.3311 24.501 -132.998s38.166 -78.5 65.499 -113.5s58.666 -66.833 93.999 -95.5s72.333 -53.667 111 -75l51 -27.5l49 -28.5c-6.66699 -31.333 -12.5 -62.666 -17.5 -93.999s-11.5 -62.666 -19.5 -93.999
c39.333 19.333 76.5 40.833 111.5 64.5s70.167 49.167 105.5 76.5c36.667 -5.33301 73.5 -10 110.5 -14s74.5 -6 112.5 -6c104 0 206.667 14.333 308 43c56 16.667 113 39.5 171 68.5s110.833 64.667 158.5 107s86.5 90.166 116.5 143.499s45 112.666 45 177.999
s-15 124.666 -45 177.999s-68.833 101.166 -116.5 143.499s-100.5 78.166 -158.5 107.499s-115 52.333 -171 69c-101.333 28.667 -204 43 -308 43c-105.333 0 -207.666 -14.333 -306.999 -43c-56 -16.667 -113 -39.667 -171 -69s-110.833 -65.166 -158.5 -107.499
s-86.5 -90 -116.5 -143s-45 -112.5 -45 -178.5z" />
    <glyph glyph-name="uniF0E6" unicode="&#xf0e6;" horiz-adv-x="1916" 
d="M0 997c0 65.333 13.335 126.172 40.002 182.505s62.167 106.666 106.5 150.999s94.5 82.166 150.5 113.499s112.667 56.666 170 75.999c50.667 16.667 102.167 28.667 154.5 36s104.5 11 156.5 11c53.333 0 106.333 -3.83301 159 -11.5s104.334 -19.5 155.001 -35.5
c57.333 -19.333 114 -44.666 170 -75.999s105.833 -69.166 149.5 -113.499s78.667 -94.5 105 -150.5s39.5 -117 39.5 -183c0 -65.333 -13.167 -126 -39.5 -182s-61.333 -105.833 -105 -149.5s-93.5 -81.5 -149.5 -113.5s-112.667 -57.667 -170 -77
c-102.667 -31.333 -207.334 -47 -314.001 -47c-24.667 0 -48.834 1 -72.501 3s-47.834 4.33301 -72.501 7c-100 -76.667 -212 -128.334 -336 -155.001c-13.333 -2.66699 -27.666 -5.83398 -42.999 -9.50098s-30.333 -5.5 -45 -5.5c-8 0 -15.167 3.16699 -21.5 9.5
s-9.5 14.166 -9.5 23.499c0 6.66699 2.5 12.5 7.5 17.5l13.5 13.5c34 34 58.167 66 72.5 96s26.166 69 35.499 117c-42 23.333 -81.5 50.666 -118.5 81.999s-69.5 66 -97.5 104s-50.167 79.333 -66.5 124s-24.5 92 -24.5 142zM160.002 997.006
c0 -48 10.166 -90.333 30.499 -127s46.166 -69.667 77.499 -99s66.166 -55.333 104.499 -78l112.5 -64l-20 -111c22 12 43.167 26 63.5 42l59.5 46l95 -12c32 -4 63.667 -6 95 -6c90 0 178 13.667 264 41c40.667 12 82 29.333 124 52s80 49.667 114 81s62 66.5 84 105.5
s33 82.167 33 129.5c0 48 -11 91.833 -33 131.5s-50 74.834 -84 105.501s-71.833 57.334 -113.5 80.001s-83.167 40 -124.5 52c-42 15.333 -85.167 26 -129.5 32s-89.166 9 -134.499 9c-44 0 -88 -3 -132 -9s-88 -16.667 -132 -32c-39.333 -12 -80.166 -29.333 -122.499 -52
s-80.666 -49.334 -114.999 -80.001s-62.333 -65.834 -84 -105.501s-32.5 -83.5 -32.5 -131.5zM649.001 258.006l27.002 15.999c34 -4 68 -6 102 -6c131.333 0 258.333 20.667 381 62c74 24.667 144.333 57.834 211 99.501s125.667 90.834 177 147.501s92.333 120 123 190
s46 146.667 46 230c0 27.333 -2 55.333 -6 84c60 -48 109.5 -104.333 148.5 -169s58.5 -136 58.5 -214c0 -50.667 -8.16699 -98.167 -24.5 -142.5s-38.5 -85.5 -66.5 -123.5s-60.5 -72.667 -97.5 -104s-76.5 -58.666 -118.5 -81.999c9.33301 -48 21.166 -87 35.499 -117
s38.5 -62 72.5 -96c4 -4 8.5 -8.83301 13.5 -14.5s7.5 -11.834 7.5 -18.501c0 -10.667 -3.5 -18.5 -10.5 -23.5s-15.167 -7.5 -24.5 -7.5c-13.333 0 -27.666 1.83301 -42.999 5.5l-41 9.5c-124 27.333 -236 79 -336 155c-24.667 -2.66699 -48.834 -5 -72.501 -7
s-47.834 -3 -72.501 -3c-86 0 -170.667 10.667 -254 32s-162 53.666 -236 96.999z" />
    <glyph glyph-name="uniF105" unicode="&#xf105;" horiz-adv-x="2048" 
 />
    <glyph glyph-name="uniF201" unicode="&#xf201;" 
 />
    <glyph glyph-name="uniF202" unicode="&#xf202;" 
 />
    <glyph glyph-name="uniF203" unicode="&#xf203;" 
 />
    <glyph glyph-name="uniF204" unicode="&#xf204;" 
 />
  </font>
</defs>
</svg>
